<?xml version="1.0" encoding="UTF-8"?>
<svg width="52px" height="52px" viewBox="0 0 52 52" version="1.1" xmlns="http://www.w3.org/2000/svg" xmlns:xlink="http://www.w3.org/1999/xlink">
    <title>015-app-development</title>
    <g id="Page-1" stroke="none" stroke-width="1" fill="none" fill-rule="evenodd">
        <g id="015-app-development" fill="#E7826D" fill-rule="nonzero">
            <path d="M36.2578125,24.1 C36.8773438,25.8457031 38.5445312,27.1 40.5,27.1 L46.7,27.1 C49.18125,27.1 51.2,25.08125 51.2,22.6 C51.2,20.11875 49.18125,18.1 46.7,18.1 L40.5,18.1 C38.5445312,18.1 36.8773438,19.3542969 36.2578125,21.1 L33,21.1 L33,4.5 C33,2.01875 30.98125,0 28.5,0 L4.5,0 C2.01875,0 0,2.01875 0,4.5 L0,46.7 C0,49.18125 2.01875,51.2 4.5,51.2 L28.5,51.2 C30.98125,51.2 33,49.18125 33,46.7 L33,39.1 L36.2578125,39.1 C36.8773438,40.8457031 38.5445312,42.1 40.5,42.1 L46.7,42.1 C49.18125,42.1 51.2,40.08125 51.2,37.6 C51.2,35.11875 49.18125,33.1 46.7,33.1 L40.5,33.1 C38.5445312,33.1 36.8773438,34.3542969 36.2578125,36.1 L33,36.1 L33,24.1 L36.2578125,24.1 Z M40.5,21.1 L46.7,21.1 C47.5269531,21.1 48.2,21.7730469 48.2,22.6 C48.2,23.4269531 47.5269531,24.1 46.7,24.1 L40.5,24.1 C39.6730469,24.1 39,23.4269531 39,22.6 C39,21.7730469 39.6730469,21.1 40.5,21.1 Z M30,46.7 C30,47.5269531 29.3269531,48.2 28.5,48.2 L4.5,48.2 C3.6730469,48.2 3,47.5269531 3,46.7 L3,45.2 L30,45.2 L30,46.7 Z M30,21.1 L26.8925781,21.1 C26.1621094,16.0183594 21.7804688,12.1 16.5,12.1 C10.7101562,12.1 6,16.8101562 6,22.6 C6,28.3800781 10.7015625,33.1 16.5,33.1 C21.7453125,33.1 26.1570312,29.2171875 26.8925781,24.1 L30,24.1 L30,36.1 L28.5,36.1 C27.6714844,36.1 27,36.7714844 27,37.6 C27,38.4285156 27.6714844,39.1 28.5,39.1 L30,39.1 L30,42.2 L3,42.2 L3,9 L30,9 L30,21.1 Z M16.5,27.1 C18.0226562,27.1 19.4171875,27.8710938 20.2398438,29.096875 C19.1382812,29.7335938 17.8613281,30.1 16.5,30.1 C15.1386719,30.1 13.8617188,29.7335938 12.7601562,29.096875 C13.5828125,27.8710938 14.9773438,27.1 16.5,27.1 Z M15,22.6 C15,21.7730469 15.6730469,21.1 16.5,21.1 C17.3269531,21.1 18,21.7730469 18,22.6 C18,23.4269531 17.3269531,24.1 16.5,24.1 C15.6730469,24.1 15,23.4269531 15,22.6 Z M20.2382812,25.1019531 C20.7191406,24.3859375 21,23.5253906 21,22.6 C21,20.11875 18.98125,18.1 16.5,18.1 C14.01875,18.1 12,20.11875 12,22.6 C12,23.5253906 12.2808594,24.3859375 12.7617188,25.1019531 C11.8859375,25.6058594 11.1152344,26.2835938 10.5023438,27.0976562 C9.5597656,25.84375 9,24.2859375 9,22.6 C9,18.4644531 12.3644531,15.1 16.5,15.1 C20.6355469,15.1 24,18.4644531 24,22.6 C24,24.2859375 23.4402344,25.84375 22.4976562,27.0976562 C21.8847656,26.2832031 21.1140625,25.6058594 20.2382812,25.1019531 Z M30,6 L3,6 L3,4.5 C3,3.6730469 3.6730469,3 4.5,3 L28.5,3 C29.3269531,3 30,3.6730469 30,4.5 L30,6 Z M40.5,36.1 L46.7,36.1 C47.5269531,36.1 48.2,36.7730469 48.2,37.6 C48.2,38.4269531 47.5269531,39.1 46.7,39.1 L40.5,39.1 C39.6730469,39.1 39,38.4269531 39,37.6 C39,36.7730469 39.6730469,36.1 40.5,36.1 Z" id="Shape"></path>
            <path d="M18,37.6 C18,38.4285156 17.3285156,39.1 16.5,39.1 C15.6714844,39.1 15,38.4285156 15,37.6 C15,36.7714844 15.6714844,36.1 16.5,36.1 C17.3285156,36.1 18,36.7714844 18,37.6 Z" id="Path"></path>
            <path d="M24,37.6 C24,38.4285156 23.3285156,39.1 22.5,39.1 C21.6714844,39.1 21,38.4285156 21,37.6 C21,36.7714844 21.6714844,36.1 22.5,36.1 C23.3285156,36.1 24,36.7714844 24,37.6 Z" id="Path"></path>
            <path d="M12,37.6 C12,38.4285156 11.3285156,39.1 10.5,39.1 C9.6714844,39.1 9,38.4285156 9,37.6 C9,36.7714844 9.6714844,36.1 10.5,36.1 C11.3285156,36.1 12,36.7714844 12,37.6 Z" id="Path"></path>
        </g>
    </g>
</svg>