<?xml version="1.0" encoding="UTF-8"?>
<svg width="52px" height="49px" viewBox="0 0 52 49" version="1.1" xmlns="http://www.w3.org/2000/svg" xmlns:xlink="http://www.w3.org/1999/xlink">
    <title>023-cms</title>
    <g id="Page-1" stroke="none" stroke-width="1" fill="none" fill-rule="evenodd">
        <g id="023-cms" fill="#6CF3D2" fill-rule="nonzero">
            <path d="M47.3834146,0 L4.56585366,0 C2.04829268,0 0,2.05545455 0,4.58181818 L0,35.1272727 C0,37.6536364 2.04829268,39.7090909 4.56585366,39.7090909 L17.775122,39.7090909 L15.7458537,45.8181818 L10.755122,45.8181818 C9.91448173,45.8181818 9.23317073,46.501875 9.23317073,47.3454545 C9.23317073,48.1890341 9.91448173,48.8727273 10.755122,48.8727273 L41.1941463,48.8727273 C42.0347866,48.8727273 42.7160976,48.1890341 42.7160976,47.3454545 C42.7160976,46.501875 42.0347866,45.8181818 41.1941463,45.8181818 L36.2034146,45.8181818 L34.1741463,39.7090909 L47.3834146,39.7090909 C49.9009756,39.7090909 51.9492683,37.6536364 51.9492683,35.1272727 L51.9492683,4.58181818 C51.9492683,2.05545455 49.9009756,0 47.3834146,0 Z M18.9546341,45.8181818 L20.9839024,39.7090909 L30.9653659,39.7090909 L32.9946341,45.8181818 L18.9546341,45.8181818 Z M48.9053659,35.1272727 C48.9053659,35.9692613 48.2224695,36.6545455 47.3834146,36.6545455 C42.961433,36.6545455 9.03381095,36.6545455 4.56585366,36.6545455 C3.72679881,36.6545455 3.04390244,35.9692613 3.04390244,35.1272727 L3.04390244,33.6 L48.9053659,33.6 L48.9053659,35.1272727 Z M16.5971951,21.7676136 L15.2127744,20.3787501 L17.3649085,18.2186932 L18.7493292,19.6079545 C19.24,20.1003409 20.0005793,20.1973864 20.5986585,19.8434091 C21.4539634,19.3375 22.3671341,18.9560795 23.3124086,18.7102841 C23.983811,18.5360795 24.4526829,17.9279545 24.4526829,17.2319319 L24.4526829,15.2727273 L27.4965854,15.2727273 L27.4965854,17.2319319 C27.4965854,17.9279545 27.9654573,18.5360795 28.6368597,18.7102841 C29.5817378,18.9560795 30.4949085,19.3375 31.3502134,19.8438068 C31.9482927,20.1973864 32.708872,20.1003409 33.1995427,19.6079545 L34.5839634,18.2186932 L36.7364939,20.3787501 L35.3520732,21.7680114 C34.8614025,22.2603977 34.7646951,23.0236364 35.117439,23.6234091 C35.6219817,24.4821023 36.0016769,25.3984659 36.2466158,26.3466478 C36.4202134,27.0203977 37.0262195,27.4909091 37.719817,27.4909091 L39.6721951,27.4909091 L39.6721951,30.5454545 L33.4306098,30.5454545 C33.5320732,30.0451137 33.5843902,29.5332387 33.5843902,29.0181818 C33.5843902,24.8074432 30.1707012,21.3818182 25.9746341,21.3818182 C21.778567,21.3818182 18.364878,24.8074432 18.364878,29.0181818 C18.364878,29.5332387 18.4171951,30.0451137 18.5186585,30.5454545 L12.2770732,30.5454545 L12.2770732,27.4909091 L14.2294513,27.4909091 C14.9230488,27.4909091 15.5290549,27.0203977 15.7030488,26.3466478 C15.9475914,25.3984659 16.3276829,24.4821023 16.8318293,23.6234091 C17.1841768,23.0236364 17.0878658,22.2603977 16.5971951,21.7676136 L16.5971951,21.7676136 Z M30.5404878,29.0181818 C30.5404878,29.5411932 30.450122,30.057841 30.2789024,30.5454545 L21.6703659,30.5454545 C21.4991463,30.057841 21.4087805,29.5411932 21.4087805,29.0181818 C21.4087805,26.4918182 23.4570732,24.4363636 25.9746341,24.4363636 C28.4921951,24.4363636 30.5404878,26.4918182 30.5404878,29.0181818 Z M48.9053659,30.5454545 L42.7160976,30.5454545 L42.7160976,25.9636364 C42.7160976,25.1200568 42.0347866,24.4363636 41.1941463,24.4363636 L38.8430488,24.4363636 C38.6853049,23.9925 38.5041768,23.5561932 38.3004573,23.1286364 L39.9650915,21.4585795 C40.5592074,20.8619886 40.5592074,19.8951137 39.9646951,19.2985227 L35.6600305,14.9788068 C35.3746646,14.6924432 34.987439,14.5317613 34.5839634,14.5317613 C34.1804878,14.5317613 33.7932622,14.6924432 33.5078964,14.9788068 L31.8436585,16.6492613 C31.4175914,16.4448296 30.9828049,16.2630681 30.5404878,16.1051704 L30.5404878,13.7454545 C30.5404878,12.901875 29.8591768,12.2181818 29.0185366,12.2181818 L22.9307317,12.2181818 C22.0900915,12.2181818 21.4087805,12.901875 21.4087805,13.7454545 L21.4087805,16.1051704 C20.9664634,16.2630681 20.5316769,16.4448296 20.1056098,16.6492613 L18.4413719,14.9788068 C18.1560061,14.6924432 17.7687805,14.5317613 17.3653049,14.5317613 C16.961433,14.5317613 16.5746037,14.6924432 16.2888414,14.9788068 L11.9845732,19.2985227 C11.3900609,19.8951137 11.3900609,20.8619886 11.9845732,21.4585795 L13.648811,23.1290341 C13.4450915,23.5561932 13.2643598,23.9925 13.1066158,24.4363636 L10.755122,24.4363636 C9.91448173,24.4363636 9.23317073,25.1204545 9.23317073,25.9636364 L9.23317073,30.5454545 L3.04390244,30.5454545 L3.04390244,4.58181818 C3.04390244,3.73982957 3.72679881,3.05454545 4.56585366,3.05454545 L47.3834146,3.05454545 C48.2224695,3.05454545 48.9053659,3.73982957 48.9053659,4.58181818 L48.9053659,30.5454545 Z" id="Shape"></path>
            <path d="M41.1941463,6.10909091 C38.6765854,6.10909091 36.6282927,8.16454545 36.6282927,10.6909091 C36.6282927,13.2172727 38.6765854,15.2727273 41.1941463,15.2727273 C43.7117073,15.2727273 45.76,13.2172727 45.76,10.6909091 C45.76,8.16454545 43.7117073,6.10909091 41.1941463,6.10909091 Z M41.1941463,12.2181818 C40.3550915,12.2181818 39.6721951,11.5328977 39.6721951,10.6909091 C39.6721951,9.84892048 40.3550915,9.16363636 41.1941463,9.16363636 C42.0332012,9.16363636 42.7160976,9.84892048 42.7160976,10.6909091 C42.7160976,11.5328977 42.0332012,12.2181818 41.1941463,12.2181818 Z" id="Shape"></path>
        </g>
    </g>
</svg>