<?xml version="1.0" encoding="UTF-8"?>
<svg width="52px" height="52px" viewBox="0 0 52 52" version="1.1" xmlns="http://www.w3.org/2000/svg" xmlns:xlink="http://www.w3.org/1999/xlink">
    <title>013-layers</title>
    <g id="Page-1" stroke="none" stroke-width="1" fill="none" fill-rule="evenodd">
        <g id="013-layers" fill="#58CBB3" fill-rule="nonzero">
            <path d="M24.9292969,12.2585938 L21.9292969,13.7585938 C21.1882812,14.1289062 20.8878906,15.0300781 21.2585938,15.7710938 C21.6289062,16.5117188 22.5300781,16.8121094 23.2710938,16.4417969 L25.6,15.2769531 L27.9292969,16.4417969 C28.6710938,16.8128906 29.571875,16.5109375 29.9417969,15.7710938 C30.3121094,15.0300781 30.0117188,14.1289062 29.2710938,13.7585938 L26.2710938,12.2585938 C25.8484375,12.0472656 25.3515625,12.0472656 24.9292969,12.2585938 Z" id="Path"></path>
            <path d="M51.2000032,13.6023438 C51.2011719,13.034375 50.8808594,12.5144531 50.3730469,12.259375 L26.2730469,0.159375 C25.8496094,-0.053125 25.3503906,-0.053125 24.9269531,0.159375 L0.8269531,12.259375 C0.3191406,12.5144531 -0.00078125,13.034375 -1.42761547e-06,13.6023438 C0.00078125,14.1707031 0.3226562,14.6894531 0.83125,14.9429688 L10.1957031,19.6054688 L0.8324219,24.2566406 C0.3230469,24.5097656 -1.42761547e-06,25.0300781 -1.42761547e-06,25.5992188 C-1.42761547e-06,26.16875 0.321875,26.6890625 0.8316406,26.9425781 L10.1957031,31.6054688 L0.8328125,36.2566406 C0.3234375,36.509375 0.00117188,37.0285156 -1.42761547e-06,37.596875 L-1.42761547e-06,37.6 C-1.42761547e-06,38.1671875 0.3199219,38.6859375 0.8269531,38.940625 L24.9269531,51.040625 C25.1386719,51.146875 25.3695312,51.2 25.6,51.2 C25.8304688,51.2 26.0613281,51.146875 26.2730469,51.040625 L50.3730469,38.940625 C50.8800781,38.6859375 51.2000032,38.1671875 51.2000032,37.6 C51.2000032,37.5988281 51.2000032,37.5980469 51.2000032,37.596875 C51.1988281,37.0285156 50.8765625,36.509375 50.3671875,36.2566406 L41.0042969,31.6054688 L50.3683594,26.9425781 C50.878125,26.6890625 51.2000032,26.16875 51.2000032,25.5992188 C51.2000032,25.0300781 50.8769531,24.5097656 50.3671875,24.2566406 L41.0042969,19.6054688 L50.3683594,14.9425781 C50.8773438,14.6894531 51.1992188,14.1707031 51.2000032,13.6023438 Z M46.3429688,37.6070312 L25.6,48.0214844 L4.8574219,37.6070312 L13.5632812,33.2820312 L24.9316406,38.9425781 C25.1421875,39.0476562 25.3710938,39.1 25.6,39.1 C25.8292969,39.1 26.0582031,39.0476562 26.26875,38.9425781 L37.6367188,33.2820312 L46.3429688,37.6070312 Z M46.3316406,25.6015625 L37.6351562,29.9316406 L34.9132812,28.5796875 C34.1714844,28.2109375 33.2710938,28.5136719 32.9027344,29.2554688 C32.5324219,30.0003906 32.8394531,30.8992188 33.5785156,31.2664062 L34.2675781,31.6085938 L25.6,35.9242188 L16.9324219,31.6085938 L17.6214844,31.2664062 C18.3613281,30.8988281 18.6671875,29.9996094 18.2976562,29.2554688 C17.9292969,28.5136719 17.0289062,28.2109375 16.2867188,28.5796875 L13.5648438,29.9316406 L4.8683594,25.6015625 L13.5632812,21.2824219 L22.2402344,25.6027344 L21.9292969,25.7585938 C21.1882812,26.1289062 20.8878906,27.0300781 21.2585938,27.7710938 C21.6289062,28.5117188 22.5300781,28.8121094 23.2710938,28.4417969 L25.6,27.2769531 L27.9292969,28.4417969 C28.6710938,28.8128906 29.571875,28.5109375 29.9417969,27.7710938 C30.3121094,27.0300781 30.0117188,26.1289062 29.2710938,25.7585938 L28.9597656,25.6027344 L37.6367188,21.2824219 L46.3316406,25.6015625 Z M37.6351562,17.9316406 L34.9132812,16.5796875 C34.1714844,16.2109375 33.2710938,16.5136719 32.9027344,17.2554688 C32.5324219,18.0003906 32.8394531,18.8992188 33.5785156,19.2664062 L34.2675781,19.6085938 L25.6,23.9242188 L16.9324219,19.6085938 L17.6214844,19.2664062 C18.3613281,18.8988281 18.6671875,17.9996094 18.2976562,17.2554688 C17.9292969,16.5136719 17.0289062,16.2109375 16.2867188,16.5796875 L13.5648438,17.9316406 L4.8542969,13.5945312 L25.6,3.1785156 L46.3460938,13.5945312 L37.6351562,17.9316406 Z" id="Shape"></path>
        </g>
    </g>
</svg>