<?xml version="1.0" encoding="UTF-8" standalone="no"?>
<svg
   xmlns:dc="http://purl.org/dc/elements/1.1/"
   xmlns:cc="http://creativecommons.org/ns#"
   xmlns:rdf="http://www.w3.org/1999/02/22-rdf-syntax-ns#"
   xmlns:svg="http://www.w3.org/2000/svg"
   xmlns="http://www.w3.org/2000/svg"
   xmlns:sodipodi="http://sodipodi.sourceforge.net/DTD/sodipodi-0.dtd"
   xmlns:inkscape="http://www.inkscape.org/namespaces/inkscape"
   width="1153px"
   height="418px"
   viewBox="0 0 1153 418"
   version="1.1"
   id="svg852"
   sodipodi:docname="LogoToExport.svg"
   inkscape:version="1.0.1 (c497b03c, 2020-09-10)">
  <metadata
     id="metadata856">
    <rdf:RDF>
      <cc:Work
         rdf:about="">
        <dc:format>image/svg+xml</dc:format>
        <dc:type
           rdf:resource="http://purl.org/dc/dcmitype/StillImage" />
        <dc:title>Logo</dc:title>
      </cc:Work>
    </rdf:RDF>
  </metadata>
  <sodipodi:namedview
     pagecolor="#ffffff"
     bordercolor="#666666"
     borderopacity="1"
     objecttolerance="10"
     gridtolerance="10"
     guidetolerance="10"
     inkscape:pageopacity="0"
     inkscape:pageshadow="2"
     inkscape:window-width="1920"
     inkscape:window-height="1035"
     id="namedview854"
     showgrid="false"
     inkscape:zoom="0.61751951"
     inkscape:cx="576.5"
     inkscape:cy="209"
     inkscape:window-x="0"
     inkscape:window-y="23"
     inkscape:window-maximized="1"
     inkscape:current-layer="svg852" />
  <title
     id="title833">Logo</title>
  <defs
     id="defs845">
    <linearGradient
       x1="84.0045418%"
       y1="4.80630166%"
       x2="23.0068302%"
       y2="100%"
       id="linearGradient-1">
      <stop
         stop-color="#56D5FF"
         offset="0%"
         id="stop835" />
      <stop
         stop-color="#2BAAFF"
         offset="100%"
         id="stop837" />
    </linearGradient>
    <linearGradient
       x1="84.0045418%"
       y1="4.80630166%"
       x2="23.0068302%"
       y2="100%"
       id="linearGradient-2">
      <stop
         stop-color="#064AFF"
         offset="0%"
         id="stop840" />
      <stop
         stop-color="#2BAAFF"
         offset="100%"
         id="stop842" />
    </linearGradient>
  </defs>
  <g
     id="Logo"
     stroke="none"
     stroke-width="1"
     fill="none"
     fill-rule="evenodd">
    <path
       d="M508.6,254 L508.6,225.05 L468.7,225.05 L468.7,130.25 L435.7,130.25 L435.7,254 L508.6,254 Z M557.125,256.4 C565.525,256.4 573.1375,254.5875 579.9625,250.9625 C586.7875,247.3375 592,242.35 595.6,236 L595.6,236 L573.25,224.9 C570.55,227.5 568.1875,229.3 566.1625,230.3 C564.1375,231.3 561.725,231.8 558.925,231.8 C555.925,231.8 553.3375,231.325 551.1625,230.375 C548.9875,229.425 547.325,228.0625 546.175,226.2875 C545.025,224.5125 544.45,222.4 544.45,219.95 L544.45,219.95 L596.5,219.95 C596.65,218 596.7375,216.7375 596.7625,216.1625 C596.7875,215.5875 596.8,214.975 596.8,214.325 C596.8,206.475 595.1,199.5875 591.7,193.6625 C588.3,187.7375 583.5875,183.1125 577.5625,179.7875 C571.5375,176.4625 564.525,174.8 556.525,174.8 C550.225,174.8 544.3875,175.825 539.0125,177.875 C533.6375,179.925 528.95,182.8 524.95,186.5 C520.95,190.2 517.825,194.5125 515.575,199.4375 C513.325,204.3625 512.2,209.7 512.2,215.45 C512.2,223.2 514.175,230.1625 518.125,236.3375 C522.075,242.5125 527.4375,247.4 534.2125,251 C540.9875,254.6 548.625,256.4 557.125,256.4 Z M566.35,205.25 L545.35,205.25 C545.4,203.3 545.825,201.6625 546.625,200.3375 C547.425,199.0125 548.5875,198 550.1125,197.3 C551.6375,196.6 553.5,196.25 555.7,196.25 C557.8,196.25 559.575,196.575 561.025,197.225 C562.475,197.875 563.65,198.8625 564.55,200.1875 C565.45,201.5125 566.05,203.2 566.35,205.25 L566.35,205.25 Z M653.5,295.25 C664.65,295.25 673.6875,293.425 680.6125,289.775 C687.5375,286.125 692.6,281.325 695.8,275.375 C699,269.425 700.6,263 700.6,256.1 L700.6,256.1 L700.6,177.2 L669.4,177.2 L669.4,182.15 C666.4,179.8 662.925,177.9875 658.975,176.7125 C655.025,175.4375 650.85,174.8 646.45,174.8 C639,174.8 632.3875,176.5875 626.6125,180.1625 C620.8375,183.7375 616.3,188.6 613,194.75 C609.7,200.9 608.05,207.85 608.05,215.6 C608.05,223.6 609.7625,230.675 613.1875,236.825 C616.6125,242.975 621.175,247.775 626.875,251.225 C632.575,254.675 638.825,256.4 645.625,256.4 C649.925,256.4 654.0875,255.675 658.1125,254.225 C662.1375,252.775 665.9,250.7 669.4,248 L669.4,248 L669.4,253.4 C669.4,256.1 668.75,258.575 667.45,260.825 C666.15,263.075 664.3,264.875 661.9,266.225 C659.5,267.575 656.65,268.25 653.35,268.25 C650,268.25 646.7375,267.55 643.5625,266.15 C640.3875,264.75 637.85,262.85 635.95,260.45 L635.95,260.45 L610.75,272.9 C613.9,280.25 619.1125,285.8125 626.3875,289.5875 C633.6625,293.3625 642.7,295.25 653.5,295.25 Z M655.375,230 C652.575,230 650.0875,229.3875 647.9125,228.1625 C645.7375,226.9375 644.05,225.25 642.85,223.1 C641.65,220.95 641.05,218.525 641.05,215.825 C641.05,213.025 641.6875,210.525 642.9625,208.325 C644.2375,206.125 645.9625,204.3875 648.1375,203.1125 C650.3125,201.8375 652.775,201.2 655.525,201.2 C658.275,201.2 660.7375,201.8375 662.9125,203.1125 C665.0875,204.3875 666.8125,206.1125 668.0875,208.2875 C669.3625,210.4625 670,212.95 670,215.75 C670,218.45 669.375,220.875 668.125,223.025 C666.875,225.175 665.15,226.875 662.95,228.125 C660.75,229.375 658.225,230 655.375,230 Z M755.8,256.4 C760,256.4 764.0375,255.7 767.9125,254.3 C771.7875,252.9 775.55,250.8 779.2,248 L779.2,248 L779.2,254 L810.4,254 L810.4,177.2 L779.2,177.2 L779.2,182.15 C776.15,179.8 772.5875,177.9875 768.5125,176.7125 C764.4375,175.4375 760.2,174.8 755.8,174.8 C748.35,174.8 741.775,176.6 736.075,180.2 C730.375,183.8 725.9125,188.6625 722.6875,194.7875 C719.4625,200.9125 717.85,207.8 717.85,215.45 C717.85,223.35 719.55,230.3875 722.95,236.5625 C726.35,242.7375 730.925,247.5875 736.675,251.1125 C742.425,254.6375 748.8,256.4 755.8,256.4 Z M765.4,230 C762.6,230 760.1,229.375 757.9,228.125 C755.7,226.875 753.975,225.1625 752.725,222.9875 C751.475,220.8125 750.85,218.35 750.85,215.6 C750.85,212.85 751.4875,210.3875 752.7625,208.2125 C754.0375,206.0375 755.775,204.325 757.975,203.075 C760.175,201.825 762.65,201.2 765.4,201.2 C768.2,201.2 770.675,201.825 772.825,203.075 C774.975,204.325 776.675,206.025 777.925,208.175 C779.175,210.325 779.8,212.8 779.8,215.6 C779.8,218.35 779.1875,220.8125 777.9625,222.9875 C776.7375,225.1625 775.0375,226.875 772.8625,228.125 C770.6875,229.375 768.2,230 765.4,230 Z M870.1,256.4 C875.05,256.4 879.7625,255.7125 884.2375,254.3375 C888.7125,252.9625 892.25,251.35 894.85,249.5 L894.85,249.5 L884.65,228.5 C883.7,229.15 882.3875,229.7375 880.7125,230.2625 C879.0375,230.7875 877.2,231.05 875.2,231.05 C871.95,231.05 869.125,230.3375 866.725,228.9125 C864.325,227.4875 862.4875,225.6 861.2125,223.25 C859.9375,220.9 859.3,218.35 859.3,215.6 C859.3,213.4 859.8375,211.1 860.9125,208.7 C861.9875,206.3 863.6875,204.275 866.0125,202.625 C868.3375,200.975 871.35,200.15 875.05,200.15 C878.95,200.15 882.15,201 884.65,202.7 L884.65,202.7 L894.85,181.7 C892.35,179.8 888.8,178.175 884.2,176.825 C879.6,175.475 874.85,174.8 869.95,174.8 C863.7,174.8 857.9125,175.9375 852.5875,178.2125 C847.2625,180.4875 842.6375,183.5625 838.7125,187.4375 C834.7875,191.3125 831.7375,195.6875 829.5625,200.5625 C827.3875,205.4375 826.3,210.475 826.3,215.675 C826.3,221.225 827.4625,226.4625 829.7875,231.3875 C832.1125,236.3125 835.3,240.65 839.35,244.4 C843.4,248.15 848.0625,251.0875 853.3375,253.2125 C858.6125,255.3375 864.2,256.4 870.1,256.4 Z M936.1,293 L998.8,177.2 L962.95,177.2 L947.35,209.6 L928.45,177.2 L892.6,177.2 L929.05,239.15 L900.25,293 L936.1,293 Z"
       id="Legacy"
       fill="#0F1124"
       fill-rule="nonzero" />
    <g
       id="Group-14-Copy"
       transform="translate(33.000000, 46.000000)">
      <path
         d="M91,76.0932515 C113.09139,76.0932515 131,94.0018615 131,116.093252 L131,214.262252 L191,214.262577 C213.09139,214.262577 231,232.171187 231,254.262577 L231,254.360736 C231,276.452126 213.09139,294.360736 191,294.360736 L91,294.360736 L91,294.360736 C68.90861,294.360736 51,276.452126 51,254.360736 L51,116.093252 C51,94.0018615 68.90861,76.0932515 91,76.0932515 Z"
         id="Combined-Shape"
         fill="url(#linearGradient-1)"
         transform="translate(141.000000, 185.226994) scale(-1, 1) rotate(-315.000000) translate(-141.000000, -185.226994) " />
      <path
         d="M257,250.306748 C234.90861,250.306748 217,232.398138 217,210.306748 L217,72.0392638 C217,49.9478738 234.90861,32.0392638 257,32.0392638 C279.09139,32.0392638 297,49.9478738 297,72.0392638 L297,170.208264 L357,170.208589 C379.09139,170.208589 397,188.117199 397,210.208589 L397,210.306748 C397,232.398138 379.09139,250.306748 357,250.306748 L257,250.306748 Z"
         id="Combined-Shape-Copy"
         fill="url(#linearGradient-2)"
         style="mix-blend-mode: multiply;"
         transform="translate(307.000000, 141.173006) scale(1, -1) rotate(-315.000000) translate(-307.000000, -141.173006) " />
    </g>
  </g>
</svg>
