<?xml version="1.0" encoding="UTF-8"?>
<svg width="681px" height="327px" viewBox="0 0 681 327" version="1.1" xmlns="http://www.w3.org/2000/svg" xmlns:xlink="http://www.w3.org/1999/xlink">
    <title>Group</title>
    <g id="Page-1" stroke="none" stroke-width="1" fill="none" fill-rule="evenodd">
        <g id="Landing" transform="translate(-625.000000, -121.000000)">
            <g id="Group" transform="translate(625.000000, 121.000000)">
                <path d="M576.462341,325.711212 C576.462341,325.711212 649.36434,331.233404 671.817424,290.001039 C705.199956,228.691666 640.316486,179.273124 593.249637,188.169505 C544.502258,197.381854 524.503948,153.905827 499.265986,110.4298 C471.402195,62.4310838 437.15239,14.4323674 350.782141,37.335114 C336.446619,41.1368748 314.551711,36.7655021 290.121004,32.3941293 C235.680828,22.6530411 168.64568,12.9119529 144.572085,93.6023341 C136.277468,121.401714 106.895198,124.462834 64.239741,142.101961 C-19.240596,176.623631 18.9284459,326.293868 78.5782646,326.879424 C138.228083,327.467878 576.462341,325.711212 576.462341,325.711212" id="Fill-2" fill="#DDE8FD"></path>
                <path d="M668.429662,327 L27.5703385,327 C27.2581532,327 27,326.774278 27,326.498688 C27,326.223097 27.2581532,326 27.5703385,326 L668.429662,326 C668.741847,326 669,326.223097 669,326.498688 C669,326.774278 668.741847,327 668.429662,327" id="Fill-3" fill="#010117"></path>
                <path d="M216.088565,174.94681 C210.428723,180.430217 204.198393,185.194109 197.469637,189.206571 C181.159685,177.688514 163.732776,167.827084 145.576244,159.848581 C148.071378,155.42704 150.533485,150.761792 152.932537,145.887652 C169.551754,148.017187 185.528422,149.293747 200.1149,149.621591 C203.922157,149.728938 207.618319,149.728938 211.203386,149.702827 C220.502341,149.59548 228.77742,149.064546 235.866485,148.104225 C230.903239,158.04689 224.252549,167.055345 216.088565,174.94681 Z M183.561739,196.137714 C170.926931,201.310685 157.547485,203.921831 143.726662,203.921831 C133.079553,203.921831 122.678656,202.36965 112.686107,199.2943 C120.258585,195.458816 127.867094,186.650548 133.725106,178.535686 C136.748692,174.349148 139.769276,169.715813 142.750827,164.716919 C159.940532,172.239922 176.469672,181.480479 191.995955,192.247106 C189.257612,193.660026 186.444205,194.959797 183.561739,196.137714 Z M49.3769484,143.491199 C49.1487532,142.963168 48.9235605,142.432235 48.7013705,141.901301 C56.5801105,142.205935 71.1816016,143.360642 89.8365604,147.463043 C91.1727034,147.756072 92.5058438,148.063607 93.8389843,148.376945 C92.8781624,153.78782 92.1695562,158.95789 91.7341837,163.817524 C90.9054748,173.026167 90.8454234,183.641928 93.5026966,191.222956 C85.4137768,186.824625 77.9944298,181.378934 71.3377352,174.94681 C61.9306877,165.857119 54.5383638,155.273272 49.3769484,143.491199 Z M45.7648584,121.128181 C48.4131239,122.085601 51.1154356,123.045923 53.9018193,123.980133 C66.710777,128.268216 81.06906,132.254566 96.4271984,135.791219 C95.8687207,138.193474 95.3552815,140.563814 94.8838782,142.896438 C93.6288045,142.60341 92.3707283,142.316184 91.1156546,142.037661 C69.8814894,137.369512 53.9498604,136.417894 46.5635416,136.258324 C44.7319748,130.931585 43.386824,125.485894 42.5370971,119.927054 C43.6120167,120.327429 44.6869362,120.727805 45.7648584,121.128181 Z M30.9231617,109.798707 C11.3614273,100.575557 2.4257831,91.6715482 6.42520448,85.3543146 C9.65296573,80.2361775 21.4050193,76.7708961 39.3904052,75.4914343 C37.1835173,82.6886242 35.8323614,90.1257495 35.3099145,97.6684811 C35.1417706,99.9082645 35.0607013,102.148048 35.0336782,104.413943 L35.0336782,105 C35.0336782,107.265895 35.1147475,109.53179 35.2528657,111.771573 C33.7635916,111.130392 32.3283638,110.466 30.9231617,109.798707 Z M49.3769484,66.5079301 C50.2897292,64.4822608 51.2265307,62.482993 52.247404,60.5371087 L52.2504065,60.5318864 C64.8942229,75.8024509 83.5311663,91.4133348 105.305794,104.950678 C102.216151,114.031665 99.5828981,122.955984 97.4570795,131.508939 C81.6155275,127.804012 66.932967,123.614573 54.0669606,119.129203 C51.3646488,118.194993 48.7434064,117.234672 46.2332591,116.277251 C44.743985,115.717305 43.2817341,115.128347 41.8465063,114.54229 C41.6273188,112.409853 41.459175,110.251306 41.4051287,108.092758 C41.3781056,107.051201 41.3510825,106.038656 41.3510825,105 C41.3510825,103.801774 41.3781056,102.574535 41.4051287,101.373408 C41.765437,92.3910641 43.3357804,83.6213838 46.0951409,75.1450222 C46.5635416,73.7054102 47.061968,72.2924898 47.611438,70.8798596 C48.1639107,69.4135559 48.7434064,67.9475422 49.3769484,66.5079301 Z M43.7261143,18.455873 C47.0529603,13.3513719 54.4903227,10.7170153 64.9302538,10.7170153 C69.9265279,10.7170153 75.6103903,11.3193197 81.8587356,12.5451079 C84.2307648,13.0093117 86.6538376,13.5553314 89.1189465,14.1834572 L89.1249516,14.1849079 C81.0180164,18.7161173 73.5716462,24.259291 66.8669105,30.7616258 C65.4617084,32.094471 64.1105525,33.4806996 62.7864198,34.9200216 C61.1290019,36.6796441 59.5586585,38.5187616 58.0393588,40.3848609 C55.6132834,43.3702716 53.3793723,46.4891409 51.3106026,49.6877953 L51.3045974,49.6959189 C42.0777041,36.4579868 39.3033307,25.2332486 43.7261143,18.455873 Z M143.726662,6.07787848 C150.815726,6.07787848 157.790693,6.76722113 164.609526,8.13517173 C156.565645,11.5171866 148.356622,20.9306596 142.126293,29.5625294 C135.748837,38.3969081 129.377386,49.208795 123.363241,61.3114586 C119.306771,59.1807632 115.466486,56.8794728 111.860401,54.4072974 C99.8981678,46.206847 92.7340391,37.6199469 88.8276973,31.8603382 C86.7529224,28.8026858 85.356728,26.197632 84.4649651,24.3283413 C88.6655586,21.4424443 93.0793345,18.8649526 97.6942824,16.6147247 L97.7002875,16.6161753 C99.5798955,15.6993728 101.495534,14.8420464 103.441199,14.037233 C103.582319,13.9792075 103.720438,13.9191512 103.861558,13.8614158 C103.894587,13.8474897 103.927615,13.8353044 103.960643,13.8213782 C104.374998,13.6519439 104.792355,13.4871515 105.209712,13.3240999 C105.320807,13.2814512 105.434904,13.237642 105.545999,13.1949932 C117.655358,8.47694178 130.512357,6.07787848 143.726662,6.07787848 Z M216.088565,35.0534801 C225.495613,44.143171 232.887936,54.7261474 238.046349,66.5079301 C239.886924,70.7173883 241.412229,75.019107 242.622264,79.3974192 C219.02808,81.0644912 197.409586,80.5411014 178.082052,77.8382747 C181.147674,65.7300986 183.213441,54.3399878 184.120217,44.2789506 C185.120072,33.1693929 184.996967,20.0097953 180.336981,12.6040038 C181.414903,13.0055401 182.492825,13.4233235 183.561739,13.8614158 C195.755171,18.8460943 206.708541,25.9634992 216.088565,35.0534801 Z M159.880481,80.2083253 C163.477558,81.0148794 167.170717,81.7309138 170.947949,82.366873 C168.293678,92.0167998 165.023881,102.063911 161.216624,112.212567 C159.748368,116.123484 158.229068,119.973474 156.66473,123.74513 C142.35749,118.670802 127.173501,111.411815 112.24473,102.443978 C113.01639,100.265121 113.812071,98.0775607 114.634774,95.887099 C118.174803,86.4599901 122.015088,77.3868365 126.041533,68.8901661 C136.187212,73.6421624 147.503893,77.4315161 159.880481,80.2083253 Z M172.218035,12.6849493 C175.358722,13.7851123 176.953086,18.1384737 177.736756,21.596792 C178.973815,27.0625017 179.199007,34.7392722 178.385311,43.797049 C177.490546,53.7118621 175.436789,64.9731563 172.380174,76.9638308 C168.687015,76.3499213 165.077927,75.6553563 161.564922,74.8749137 C149.428539,72.1778895 138.364074,68.4889199 128.482621,63.8550054 C134.379666,51.9742892 140.612998,41.3791274 146.84633,32.7452267 C152.229936,25.2880827 157.496441,19.5351469 162.072356,16.1078721 C164.4624,14.319527 167.675149,12.4052665 170.488556,12.4052665 C171.089069,12.4052665 171.668565,12.4920146 172.218035,12.6849493 Z M79.7719504,27.7538753 C80.7147569,29.6205548 82.0178717,31.9340306 83.7743743,34.5559117 C91.2567753,45.7281368 101.135226,53.8270426 108.10719,58.6536017 C112.112617,61.4251886 116.385272,63.9939764 120.913145,66.3564837 C116.778608,75.0588544 112.842241,84.3464121 109.224146,93.9896659 C108.548568,95.7884557 107.891005,97.5843442 107.251458,99.3744301 C85.6299617,85.7758697 67.3263035,70.172239 55.3190317,55.071399 L55.3130265,55.0653063 C58.3185977,50.1099306 61.7655465,45.4206018 65.6268497,41.0245917 C67.2272188,39.2118759 68.8816341,37.4525435 70.6201213,35.7463043 C70.8693345,35.5066591 71.088522,35.2931254 71.3377352,35.0534801 C74.0220315,32.4585809 76.8384409,30.0267332 79.7719504,27.7538753 Z M115.919874,135.495289 C111.563147,134.630709 107.272476,133.725512 103.05687,132.785499 C105.041568,124.804095 107.479653,116.483242 110.329091,108.002818 C125.125749,116.793678 140.177626,123.945318 154.427816,129.019646 C152.641288,133.145257 150.803716,137.166423 148.927111,141.057031 C138.102851,139.557072 127.029378,137.697356 115.919874,135.495289 Z M140.294726,157.59139 C127.305614,152.183416 113.956194,147.715454 100.468656,144.26584 C100.946064,141.901301 101.465509,139.493244 102.032994,137.050372 C105.783202,137.874333 109.584454,138.672184 113.43675,139.441021 C124.70539,141.666298 135.947006,143.557929 146.948418,145.0869 C144.771556,149.444613 142.546652,153.622448 140.294726,157.59139 Z M103.633363,195.412395 C100.492676,194.312813 98.901315,189.958001 98.1176446,186.499682 C96.8775837,181.036584 96.6523911,173.359813 97.4690898,164.302036 C97.8804417,159.720925 98.5440093,154.849686 99.4357722,149.75505 C112.301779,153.068304 125.04468,157.330275 137.451293,162.46553 C134.655902,167.122075 131.830485,171.43917 129.005068,175.352988 C123.621462,182.809262 118.354957,188.562488 113.779042,191.988892 C110.884566,194.159045 106.771047,196.511978 103.633363,195.412395 Z M238.103398,143.357741 C230.735095,144.637203 221.550237,145.385731 210.819057,145.490177 C194.166812,145.687464 175.04045,144.416706 154.887209,141.849079 C156.58366,138.283413 158.247083,134.616203 159.868471,130.867757 C166.122821,132.889945 172.191012,134.491448 177.979964,135.625846 C184.609636,136.928518 190.662814,137.5697 196.064435,137.5697 C208.726267,137.5697 217.797027,134.035948 222.276859,127.165732 C223.015491,126.034235 223.616005,124.833108 224.0784,123.565251 L217.62588,123.565251 C217.517788,123.756735 217.40369,123.942417 217.28659,124.125197 C213.956741,129.231439 206.519379,131.865795 196.079448,131.865795 C191.086176,131.865795 185.399311,131.26233 179.150966,130.037993 C173.704307,128.970324 167.993421,127.470366 162.105384,125.581636 C163.657712,121.824487 165.171007,117.994805 166.630255,114.107098 C170.56362,103.624796 173.932502,93.2353348 176.655832,83.2569838 C189.074455,85.0256003 202.399855,85.9136802 216.562971,85.9136802 C225.378512,85.9136802 234.521334,85.5701694 243.964412,84.8819872 C245.366612,91.4510514 246.075218,98.1733028 246.075218,105 C246.075218,118.30234 243.399929,131.204305 238.103398,143.357741 Z M264.060604,126.164792 L255.647406,125.979111 C258.349718,129.364897 258.95924,132.483767 257.274799,135.121025 C255.59336,137.813407 251.563913,140.027079 245.549768,141.706916 C250.101662,130.003178 252.392622,117.661159 252.392622,105 C252.392622,90.8185737 249.522167,77.0639247 243.841307,64.1355586 C238.379634,51.6336796 230.54293,40.3848609 220.556387,30.7616258 C210.569844,21.1119892 198.955909,13.5416954 186.017841,8.23700644 C172.611372,2.77245724 158.376194,0 143.726662,0 C129.050106,0 114.814929,2.77245724 101.40846,8.23700644 C99.8080907,8.90342903 98.2077216,9.59625321 96.6613988,10.3160592 L96.6493885,10.3230223 C91.9743892,8.94491724 87.4224952,7.81545136 83.0297373,6.95522367 C60.8587707,2.60766489 45.1253112,5.61251416 38.7328427,15.4162084 C32.6496387,24.7400321 35.9614719,38.7752342 48.0317977,55.1448012 L48.0257925,55.1523445 C46.3984003,58.0579702 44.9361494,61.0436711 43.5849935,64.1355586 C42.5641202,66.4548368 41.6543419,68.773825 40.825633,71.1461966 C18.1502349,72.45235 6.01085001,76.3087232 1.59707416,83.2929596 C-3.53431558,91.4220386 3.47367954,102.333729 25.902867,112.943688 C28.9925101,114.408831 32.3013407,115.847863 35.7783152,117.289796 C36.9373067,127.125114 39.558549,136.693515 43.5849935,145.864441 C49.0466658,158.36603 56.8803673,169.614269 66.8669105,179.263905 C76.8564563,188.887431 88.4703916,196.459755 101.40846,201.763284 C114.814929,207.226382 129.050106,210 143.726662,210 C158.376194,210 172.611372,207.226382 186.017841,201.763284 C198.955909,196.459755 210.569844,188.887431 220.556387,179.263905 C230.266694,169.881186 237.96528,158.952088 243.399929,146.850875 C254.461392,144.637203 261.745623,141.173082 264.640099,136.589069 C266.654823,133.415076 266.40561,129.89583 264.060604,126.164792 L264.060604,126.164792 Z" id="Fill-4" fill="#BED2FA"></path>
                <path d="M472,113 C472,113 492.024023,132.624014 492.940616,140.022513 C493.857208,147.423938 483.859886,159 483.859886,159 L472,113" id="Fill-5" fill="#E75755"></path>
                <path d="M464,315.365362 C464,315.365362 463.343989,325.829799 461.29581,325.979458 C461.025688,326 450.909465,326 450.909465,326 L438,325.926637 C438,325.926637 438.083115,322.851279 441.858888,322.199819 C445.631693,321.551294 451.948396,318.927848 454.234045,313.997884 C456.641397,308.809683 464,315.365362 464,315.365362" id="Fill-6" fill="#060632"></path>
                <path d="M493,315.365362 C493,315.365362 492.344064,325.829799 490.296119,325.979458 C490.023059,326 479.910959,326 479.910959,326 L467,325.926637 C467,325.926637 467.083105,322.851279 470.858447,322.199819 C474.630822,321.551294 480.946804,318.927848 483.232192,313.997884 C485.639269,308.809683 493,315.365362 493,315.365362" id="Fill-7" fill="#060632"></path>
                <path d="M450,203.808303 C450,203.808303 453.393318,224.898603 466.048189,262.342219 C478.700078,299.785836 480.426556,316 480.426556,316 L494,315.628927 C494,315.628927 494.11612,274.709397 488.283668,255.880325 C482.454198,237.051254 487.025337,188 487.025337,188 L450,203.808303" id="Fill-8" fill="#060632"></path>
                <path d="M443.01028,189 C443.01028,189 442.522083,220.824016 448.27432,259.898706 C454.026556,298.973397 452.0768,315.561709 452.0768,315.561709 L465.852452,316 C465.852452,316 474.085094,276.910797 471.72598,257.353133 C469.363833,237.79547 483,190.239407 483,190.239407 L443.01028,189" id="Fill-9" fill="#0B0754"></path>
                <path d="M470,114.47089 L463.456489,119 L454,117.139269 C454.131298,116.334475 454.757252,112.99258 455.325191,109.967466 C455.358779,109.787671 455.392366,109.610731 455.425954,109.436644 C455.91145,106.862443 456.332824,104.650685 456.332824,104.650685 L465.166412,100.535388 L468.458015,99 C468.448855,99.0542237 468.20458,101.859589 468.167939,102.267694 C467.551145,109.533676 470,114.47089 470,114.47089" id="Fill-10" fill="#FFA3A1"></path>
                <path d="M454.129794,113.043768 C454.330383,112.967372 466.557522,109.627766 467.884956,110.034303 C469.215339,110.44084 470,112.817308 470,112.817308 L450,117 C450,117 451.575221,114.039647 454.129794,113.043768" id="Fill-11" fill="#E75755"></path>
                <path d="M488.475593,193.291521 C486.351825,202.622409 451.027198,203.728379 441.921885,195.258982 C440.88568,194.295624 440.834323,189.804807 441.224032,183.74817 C441.988347,171.920119 444.441404,154.125654 444.538076,145.033422 C444.586412,140.64447 445.211761,136.153653 446.045559,132.076119 C447.818889,123.385528 450.525711,116.563443 450.525711,116.563443 C450.525711,116.563443 467.778678,111.190761 471.008134,112.104641 C486.563296,116.508145 490.59936,183.963543 488.475593,193.291521" id="Fill-12" fill="#FA7269"></path>
                <path d="M441,184 C441.755081,172.269049 444.178503,154.620663 444.274008,145.603072 C444.32176,141.25015 444.939553,136.796198 445.763278,132.752138 L456.018055,131 C456.018055,131 466.043024,170.606394 441,184" id="Fill-13" fill="#E75755"></path>
                <path d="M446.840219,167.616407 C446.840219,167.616407 447.519235,169.310905 446.091559,170.44864 C444.663883,171.583348 443.738215,173.426115 444.066117,174.772637 C444.394018,176.119158 447.525039,178.315954 448.610305,177.961925 C449.692669,177.607895 451.903826,175.834724 451.66588,175.12364 C451.427934,174.415581 453.151591,168.893332 450.505168,166.766132 C447.858744,164.638931 446.840219,167.616407 446.840219,167.616407" id="Fill-14" fill="#FFA3A1"></path>
                <path d="M457.80484,115 C457.80484,115 447.868506,116.488592 439.93489,127.840546 C432.001273,139.189614 426.783509,147.630737 428.245434,151.718594 C429.704387,155.812221 443.025137,170 445.322023,170 C447.618909,170 451.324235,168.378704 451.535203,164.729347 C451.535203,164.729347 442.154519,151.081039 444.002725,149.038552 C444.793115,148.164437 456.179489,139.189614 457.80484,143.245738 C460.49395,149.95017 457.80484,115 457.80484,115" id="Fill-15" fill="#FA7269"></path>
                <path d="M466.756274,102.973818 C464.884819,106.649585 457.90886,109.832225 455,111 C455.032419,110.809405 455.064838,110.621835 455.097257,110.43729 C455.565857,107.708448 455.972567,105.363823 455.972567,105.363823 L464.498739,101.001307 C466.381983,100.971054 467.528433,101.461156 466.756274,102.973818" id="Fill-16" fill="#EA8888"></path>
                <path d="M451.97322,104.826766 C451.97322,104.826766 467.768576,109.532684 470.686132,100.094832 C473.600661,90.6549577 477.604733,84.9052395 467.644489,81.5015428 C457.684244,78.0981351 454.603257,81.1451302 452.826696,84.0698524 C451.050134,86.9939964 447.941909,103.361225 451.97322,104.826766" id="Fill-17" fill="#FFA3A1"></path>
                <path d="M454.46095,82.6600969 C454.46095,82.6600969 455.379138,94.011881 457.774939,93.4993001 C460.17378,92.9867192 462.350676,92.6044555 461.970631,96.0332452 C461.590587,99.4591388 458.234033,103.441052 465.609938,103.988385 C472.982804,104.532821 483.754788,85.7740981 481.757273,82.2546657 C475.995797,72.1003516 446.11517,70.2834406 454.46095,82.6600969" id="Fill-18" fill="#0B0754"></path>
                <path d="M565.936462,187 C565.936462,187 559.905781,188.511773 556.0741,187.385296 C552.239406,186.258819 545.642408,188.10883 544.579056,189.473544 C543.518717,190.838257 543.907307,191.382378 545.805074,191.852969 C547.699828,192.32356 554.41732,195.120635 558.83038,193.500037 C563.243441,191.882381 569,191.823557 569,191.823557 L565.936462,187" id="Fill-19" fill="#FD8C85"></path>
                <path d="M617,136.457194 C617,136.457194 610.302909,182.711989 599.211596,186.856715 C593.73595,188.900135 569.548368,193.534008 562.392491,194 C562.392491,194 560.64076,192.616495 561.066776,186.995645 C561.066776,186.995645 586.410262,177.956553 590.009054,173.039032 C595.368515,165.72498 586.684342,143.151853 593.408245,136.280638 C600.132148,129.409424 611.455833,126.457175 617,136.457194" id="Fill-20" fill="#587BC7"></path>
                <path d="M616.698088,315.654061 L616.698088,305.484604 L633.278151,305.484604 C633.725444,305.484604 634.091136,305.134532 634.091136,304.706344 L634.091136,303.091961 C634.091136,302.663774 633.725444,302.313701 633.278151,302.313701 L616.698088,302.313701 L616.698088,244.927878 C616.698088,243.316388 615.322964,242 613.639571,242 L610.360429,242 C608.677036,242 607.301912,243.316388 607.301912,244.927878 L607.301912,302.313701 L590.721849,302.313701 C590.274556,302.313701 589.908864,302.663774 589.908864,303.091961 L589.908864,304.706344 C589.908864,305.134532 590.274556,305.484604 590.721849,305.484604 L607.301912,305.484604 L607.301912,315.654061 C595.30358,316.522009 585.695847,320.656334 583,326 L641,326 C638.304153,320.656334 628.69642,316.522009 616.698088,315.654061" id="Fill-21" fill="#120F59"></path>
                <path d="M615.441874,234.241578 C613.485914,237.472832 611.222844,240.497959 608.891196,243.366314 C601.684555,252.223956 593.842823,259.525486 592.474247,266.42928 C592.205899,267.805393 591.77356,269.286022 591.210029,270.847939 C590.637553,272.427276 589.933884,274.090806 589.119894,275.809496 C586.060725,282.277811 581.486878,289.524181 576.921976,296.111526 C569.029557,307.497849 561.608237,317 561.608237,317 L548,316.433877 C548.54266,315.107118 554.479119,299.383424 562.422227,280.170092 C565.645387,272.369213 569.074281,264.071887 572.38391,256.070687 C572.825193,255.002312 573.263495,253.939743 573.701798,252.885884 C574.712576,250.435589 575.708446,248.025939 576.680463,245.677255 C584.134581,227.636814 590.074021,213.271814 590.074021,213.271814 C590.074021,213.271814 619.875584,202.277422 622.970533,209.401858 C625.522823,215.275017 623.444615,221.026243 615.441874,234.241578" id="Fill-22" fill="#060632"></path>
                <path d="M561,314.596556 C561,314.596556 560.324793,325.830493 558.127355,325.990766 C557.834966,326.011542 533,325.990766 533,325.990766 C533,325.990766 533.198945,322.592389 537.247174,321.897873 C541.295403,321.203358 548.07159,318.401551 550.522231,313.133324 C553.102487,307.59204 561,314.596556 561,314.596556" id="Fill-23" fill="#060632"></path>
                <path d="M592.244261,283 C592.244261,283 601.869975,288.956504 600.936205,290.892368 C600.811904,291.149315 595.494266,300.32642 595.494266,300.32642 L588.633482,312 C588.633482,312 585.747284,310.347362 587.111558,306.592429 C588.475833,302.834575 589.300461,295.759766 585.804887,291.158075 C582.12741,286.319875 592.244261,283 592.244261,283" id="Fill-24" fill="#060632"></path>
                <path d="M579.548723,208 C579.548723,208 541.459841,230.857703 537.233106,246.134957 C533.009388,261.41221 587.582838,294 587.582838,294 C587.582838,294 593.568449,288.909521 594.624379,285.174565 C594.624379,285.174565 569.957867,256.67952 564.605814,250.291696 C561.320365,246.367664 613.196669,236.710299 619.535262,227.207103 C625.873856,217.700998 623.605116,209.704583 623.605116,209.704583 L579.548723,208" id="Fill-25" fill="#0B0754"></path>
                <path d="M650.188433,237 L572.811567,237 C571.265657,237 570,238.202342 570,239.667428 L570,254.332572 C570,255.800514 571.265657,257 572.811567,257 L650.188433,257 C651.734343,257 653,255.800514 653,254.332572 L653,239.667428 C653,238.202342 651.734343,237 650.188433,237" id="Fill-26" fill="#EA8888"></path>
                <path d="M615,127.629322 C615,127.629322 600.030417,135.903234 591,133.592716 C591,133.592716 593.042809,130.717932 596.743898,128.451961 C596.545625,127.581805 596.37439,126.765105 596.224183,126.004832 C595.361998,121.645139 595.205783,119.108915 595.205783,119.108915 L602.100263,113 C604.007886,113.400925 605.792339,113.775122 606.738641,113.97113 C606.828765,114.422543 606.924897,114.859106 607.03605,115.289729 C609.187007,123.771529 615,127.629322 615,127.629322" id="Fill-27" fill="#FD8C85"></path>
                <path d="M624.75684,170.271825 C623.453106,187.018086 625.165202,212.483044 623.689049,216.892998 C622.412539,220.698572 607.88695,218.434314 602.088209,217.167717 C599.940527,216.696358 597.342134,216.025466 594.659045,215.230229 C587.169382,213.012238 579.008191,209.848638 578.130969,207.497626 C578.10072,207.405089 578.070471,207.315444 578.052321,207.225799 L578.052321,207.222908 C578.037197,207.16218 578.028122,207.104345 578.019047,207.046509 C577.979723,206.768899 578.003923,206.50864 578.067446,206.242596 C578.357836,205.045402 579.483101,203.749888 579.616197,200.782928 C579.764417,197.471847 579.743243,193.570845 579.873313,189.377773 C579.879363,188.906414 579.885413,188.388786 579.939861,187.920319 L579.939861,187.749705 C579.942886,187.657168 579.945911,187.570415 579.948936,187.48077 C580.072957,182.804772 580.330074,177.885865 580.626515,173.013226 C580.814059,169.947946 581.034877,166.914476 581.282919,164.011135 C581.936298,156.509875 582.816545,149.838553 583.981133,145.622347 C585.886823,138.748602 590.082365,134.263461 593.905843,130.978406 L596.670606,128.711256 C599.752983,129.356121 603.401017,128.928139 606.698163,127.435983 C610.264525,125.81659 611.498686,124.654097 612.121816,125.093647 C620.364679,131.172155 626.293491,149.803852 624.75684,170.271825" id="Fill-28" fill="#7997E1"></path>
                <path d="M594.50028,215 C587.081996,212.782917 578.998583,209.62061 578.129721,207.270559 C578.09976,207.17806 578.069799,207.088452 578.051823,206.998844 L578.051823,206.995953 C578.051823,206.938141 578.039838,206.88033 578.018866,206.819627 C577.979917,206.54213 578.003885,206.281977 578.066803,206.016043 C578.354426,204.819338 579.468967,203.524353 579.600794,200.558607 C579.747602,197.24888 579.726629,193.349472 579.85546,189.158115 C579.861452,188.686949 579.867445,188.169533 579.921374,187.701257 L579.921374,187.530713 C579.92437,187.438214 579.927366,187.351496 579.930362,187.261888 L607.949666,175 C607.949666,175 609.564551,196.789276 594.50028,215" id="Fill-29" fill="#587BC7"></path>
                <path d="M607,115.288879 C605.963941,117.836036 602.864906,123.847682 596.033012,126 C595.158456,121.641927 595,119.106645 595,119.106645 L601.993398,113 C603.92839,113.400776 605.738446,113.774834 606.698324,113.97077 C606.789741,114.422014 606.887252,114.858415 607,115.288879" id="Fill-30" fill="#ED6966"></path>
                <path d="M592.464335,119.885957 C592.464335,119.885957 607.130919,121.504751 608.021337,112.544505 C608.911755,103.581341 611.40433,97.7565974 602.077276,96.3419751 C592.750222,94.9273529 590.588204,98.1736922 589.548886,101.096273 C588.509569,104.015936 588.673358,119.232605 592.464335,119.885957" id="Fill-31" fill="#FD8C85"></path>
                <path d="M608.018552,113 C608.018552,113 607.071918,101.056397 593.467094,99.8207511 C584.149427,98.9745385 589.34681,91.232718 590.338955,90 C590.338955,90 597.47815,90.945767 604.793322,92.1111394 C620.151847,94.559007 609.526491,111.140675 608.018552,113" id="Fill-32" fill="#0B0754"></path>
                <polyline id="Fill-33" fill="#3662C1" points="572.955338 196.080847 536.61516 196.834456 526.283295 166 525 166.404235 535.921407 199 573 198.231954 572.955338 196.080847"></polyline>
                <path d="M568.40691,194 C568.40691,194 562.580196,196.113543 558.640457,195.417691 C554.700718,194.724726 548.34951,197.228061 547.448223,198.671738 C546.543922,200.115415 546.993058,200.603378 548.931277,200.860352 C550.87251,201.120214 557.865773,203.138474 562.073787,201.094228 C566.281802,199.047094 572,198.383003 572,198.383003 L568.40691,194" id="Fill-34" fill="#FD8C85"></path>
                <path d="M614,138.431528 C614,138.431528 612.586794,185.512475 602.001195,190.865302 C596.778608,193.503773 573.196295,200.759568 566.118315,202 C566.118315,202 564.21213,200.806267 564,195.123631 C564,195.123631 588.230654,183.326396 591.260233,178.011512 C595.768748,170.099017 584.543771,148.416273 590.462504,140.801482 C596.381237,133.18961 607.334329,129.007166 614,138.431528" id="Fill-35" fill="#7997E1"></path>
                <path d="M214.103531,142.63532 L199.123739,315.491284 C199.123739,315.491284 197.555425,325.968372 205.585551,325.985799 C218.790514,326.017751 271.308079,325.985799 271.308079,325.985799 C271.308079,325.985799 261.371434,323.807309 261.491152,318.898444 C261.634815,313.112373 279,141 279,141 L214.103531,142.63532" id="Fill-36" fill="#E75755"></path>
                <path d="M275.210788,322.927711 C272.614384,322.933519 222.484044,323.087417 209.630648,322.927711 C204.03103,322.858022 203.046909,318.092981 203.002041,315.009207 C202.978111,313.528299 203.172542,312.436492 203.172542,312.436492 L218.140751,139.631903 L283,138 C283,138 275.689388,210.00409 270.52051,262.419536 C269.943199,268.258961 269.392809,273.857376 268.887288,279.084111 C268.719778,280.753763 268.564233,282.385666 268.408688,283.974013 C267.930088,288.933604 267.490375,293.486672 267.110486,297.508354 C266.910072,299.628086 266.724615,301.596823 266.557105,303.400047 C265.896039,310.467755 265.510168,314.983073 265.504185,315.842581 C265.501194,316.342025 265.546063,316.806623 265.629818,317.239281 C266.694702,322.747679 274.235641,322.927711 275.210788,322.927711" id="Fill-37" fill="#EA8888"></path>
                <polyline id="Fill-38" fill="#EA8888" points="56 48 114.601811 276 431 276 368.229056 48 56 48"></polyline>
                <polyline id="Fill-39" fill="#EA8888" points="55.0921425 48 50 49.636196 107.225551 281 114 276.048698 55.0921425 48"></polyline>
                <polyline id="Fill-40" fill="#E75755" points="108 281 422.320428 281 431 276 114.736787 276 108 281"></polyline>
                <polygon id="Fill-41" fill="#EA8888" points="218 326 286 326 286 323 218 323"></polygon>
                <polyline id="Fill-42" fill="#6D89CF" points="415.273806 235 363.920125 52.014517 55 52.014517 55 49 367.817328 49 419 234.593261 415.273806 235"></polyline>
                <polyline id="Fill-43" fill="#E75755" points="269 281 268.651137 283.408525 205 296 206.28811 281 269 281"></polyline>
                <path d="M240.744822,323 L225.062303,323 C218.449876,322.99111 212.845568,322.970366 209.609445,322.928878 C204.026015,322.857757 203.044739,317.994814 203,314.847681 L266.371334,303 C265.712179,310.21292 265.327423,314.821011 265.321458,315.698178 C265.321458,315.712995 265.321458,315.727812 265.321458,315.745592 C265.321458,316.237517 265.366197,316.696844 265.446727,317.123574 C266.508534,322.745147 274.027672,322.928878 275,322.928878 C273.547473,322.931842 257.125269,322.98222 240.744822,323" id="Fill-44" fill="#E97474"></path>
                <path d="M232.421833,323.001451 C229.859642,323.001451 227.36744,322.998549 225,322.998549 L241,322.998549 C238.11221,322.998549 235.227463,323.001451 232.421833,323.001451" id="Fill-45" fill="#E97474"></path>
                <polyline id="Fill-46" fill="#E97474" points="114.028106 276 114.028106 276 97 210 253 230.024553 114.031105 276"></polyline>
                <polyline id="Fill-47" fill="#6D89CF" points="56 49 368.324974 49 419 232 101.505513 232 56 49"></polyline>
                <path d="M280.842072,255 C279.94562,250.581578 275.484204,247 270.879833,247 C266.272484,247 263.261475,250.581578 264.157928,255 C265.05438,259.418422 269.515796,263 274.120167,263 C278.727516,263 281.738525,259.418422 280.842072,255" id="Fill-48" fill="#E75755"></path>
                <polyline id="Fill-49" fill="#DEE9FD" points="404 224 111.858491 224 69 59 356.930292 59 404 224"></polyline>
                <polyline id="Fill-50" fill="#C1D4FA" points="362 78 73.0830457 78 68 58 356.418558 58 362 78"></polyline>
                <path d="M81.8958568,65 C80.5552342,65 79.7410793,66.1190843 80.0747965,67.5 C80.4085137,68.8803226 81.7663975,70 83.1041432,70 C84.4447658,70 85.2589207,68.8803226 84.9252035,67.5 C84.5914863,66.1190843 83.2364793,65 81.8958568,65" id="Fill-51" fill="#DEE9FD"></path>
                <path d="M90.894726,65 C89.5576598,65 88.741043,66.1190843 89.0745907,67.5 C89.4110138,68.8803226 90.7653325,70 92.105274,70 C93.4423402,70 94.258957,68.8803226 93.9254093,67.5 C93.5918616,66.1190843 92.2346675,65 90.894726,65" id="Fill-52" fill="#DEE9FD"></path>
                <path d="M102.925203,67.5 C102.591486,66.1190843 101.233602,65 99.8958568,65 C98.5552342,65 97.7410793,66.1190843 98.0747965,67.5 C98.4085137,68.8803226 99.7635207,70 101.104143,70 C102.444766,70 103.258921,68.8803226 102.925203,67.5" id="Fill-53" fill="#DEE9FD"></path>
                <path d="M309.562489,144.96469 C307.563672,147.437361 304.422674,148.798491 300.716597,148.798491 C292.76341,148.798491 284.674965,142.544258 282.688171,134.853439 C281.720323,131.109606 282.342511,127.621167 284.437511,125.032408 C286.436328,122.562639 289.577326,121.198607 293.280397,121.198607 C301.23659,121.198607 309.325035,127.455742 311.308823,135.143659 C312.276671,138.890394 311.657489,142.378833 309.562489,144.96469 Z M312.517131,134.853439 C310.40109,126.663442 301.771612,120 293.280397,120 C289.18658,120 285.696916,121.526555 283.45764,124.29525 C281.122181,127.180033 280.421843,131.034149 281.482869,135.143659 C283.59891,143.336558 292.228388,150 300.716597,150 C304.81342,150 308.300078,148.473445 310.54236,145.70475 C312.877819,142.819967 313.578157,138.965851 312.517131,134.853439 L312.517131,134.853439 Z" id="Fill-54" fill="#FA7269"></path>
                <polyline id="Fill-55" fill="#FA7269" points="299 139 297.458084 128.476735 297.338323 128 293 128 293.11976 128.476735 296.952096 139 299 139"></polyline>
                <polyline id="Fill-56" fill="#FA7269" points="296 140 296.989044 144 301 144 300.013999 140 296 140"></polyline>
                <path d="M318.565494,180.967105 C316.563672,183.440015 313.422674,184.801277 309.719603,184.801277 C301.76341,184.801277 293.674965,178.543537 291.691177,170.854876 C290.723329,167.107779 291.342511,163.621904 293.437511,161.032895 C295.439334,158.559985 298.580332,157.198723 302.283403,157.198723 C310.23659,157.198723 318.325035,163.456463 320.311829,171.145124 C321.279677,174.892221 320.657489,178.378096 318.565494,180.967105 Z M321.517131,170.854876 C319.40109,162.664087 310.774617,156 302.283403,156 C298.189586,156 294.699922,157.5238 292.45764,160.292763 C290.122181,163.180728 289.421843,167.032314 290.482869,171.145124 C292.59891,179.335913 301.228388,186 309.719603,186 C313.81342,186 317.303084,184.4762 319.54236,181.707237 C321.877819,178.819272 322.578157,174.967686 321.517131,170.854876 L321.517131,170.854876 Z" id="Fill-57" fill="#FA7269"></path>
                <polyline id="Fill-58" fill="#FA7269" points="308 174 306.461078 163.476735 306.338323 163 302 163 302.122754 163.476735 305.952096 174 308 174"></polyline>
                <polyline id="Fill-59" fill="#FA7269" points="306 176 306.988443 180 311 180 310.011557 176 306 176"></polyline>
                <path d="M354.624447,130 C355.592246,130 356.188048,129.325322 355.946098,128.498712 C355.704148,127.674678 354.715178,127 353.747378,127 L322.375553,127 C321.407754,127 320.811952,127.674678 321.053902,128.498712 C321.295852,129.325322 322.284822,130 323.252622,130 L354.624447,130" id="Fill-60" fill="#C1D4FA"></path>
                <path d="M349.946098,106.501288 C349.704149,105.674678 348.715184,105 347.744365,105 L316.375722,105 C315.404903,105 314.812129,105.674678 315.054078,106.501288 C315.293002,107.325322 316.284991,108 317.252786,108 L348.624453,108 C349.592248,108 350.188047,107.325322 349.946098,106.501288" id="Fill-61" fill="#C1D4FA"></path>
                <path d="M355.624278,137 C356.595097,137 357.187871,136.322747 356.945922,135.498712 C356.706998,134.674678 355.715009,134 354.747214,134 L323.375547,134 C322.407752,134 321.811953,134.674678 322.053902,135.498712 C322.295851,136.322747 323.284816,137 324.255635,137 L355.624278,137" id="Fill-62" fill="#C1D4FA"></path>
                <path d="M358.947095,141.501288 C358.705159,140.677253 357.713223,140 356.745479,140 L325.375474,140 C324.40773,140 323.811963,140.677253 324.053899,141.501288 C324.295835,142.325322 325.287772,143 326.255515,143 L357.622497,143 C358.593264,143 359.186007,142.325322 358.947095,141.501288" id="Fill-63" fill="#C1D4FA"></path>
                <path d="M363.621551,166 C364.592291,166 365.188042,165.324742 364.946113,164.5 C364.704184,163.675258 363.712275,163 362.744558,163 L331.375435,163 C330.407719,163 329.811969,163.675258 330.053898,164.5 C330.295827,165.324742 331.287736,166 332.255452,166 L363.621551,166" id="Fill-64" fill="#C1D4FA"></path>
                <path d="M365.624526,172 C366.59227,172 367.188037,171.325322 366.946101,170.501288 C366.704165,169.674678 365.715252,169 364.744485,169 L333.377503,169 C332.406736,169 331.813993,169.674678 332.052905,170.501288 C332.294841,171.325322 333.286777,172 334.254521,172 L365.624526,172" id="Fill-65" fill="#C1D4FA"></path>
                <path d="M367.946098,177.501288 C367.704149,176.674678 366.715184,176 365.744365,176 L334.375722,176 C333.404903,176 332.812129,176.674678 333.054078,177.501288 C333.293002,178.325322 334.284991,179 335.252786,179 L366.624453,179 C367.592248,179 368.188047,178.325322 367.946098,177.501288" id="Fill-66" fill="#C1D4FA"></path>
                <path d="M348.910867,99.1997686 L346.735258,90.8019671 C346.3386,89.2601041 344.700883,88 343.10223,88 L93.2737468,88 C91.6720895,88 90.6894593,89.2601041 91.0891223,90.8019671 L93.2647318,99.1997686 C93.6643949,100.741632 95.299107,102 96.8977593,102 L346.729248,102 C348.3279,102 349.31053,100.741632 348.910867,99.1997686" id="Fill-67" fill="#C1D4FA"></path>
                <path d="M270.372974,88 L274,102 L96.8977727,102 C95.2991168,102 93.664401,100.741632 93.264737,99.1997686 L91.0891225,90.8019671 C90.6894586,89.2601041 91.672091,88 93.273752,88 L270.372974,88" id="Fill-68" fill="#FA7269"></path>
                <polyline id="Fill-69" fill="#3662C1" points="302 93 302.249664 94.1405212 304.719463 94.1405212 303.430872 99 304.73557 99 306 93.9964231 305.78255 93 302 93"></polyline>
                <path d="M310.93479,97.8468379 C310.220132,97.8468379 309.568693,97.0612648 309.32406,96 C309.073929,94.923913 309.357044,94.1501976 310.066205,94.1501976 C310.772618,94.1501976 311.432303,94.9476285 311.676936,96 C311.924318,97.0701581 311.649449,97.8468379 310.93479,97.8468379 Z M309.813326,93 C308.384009,93 307.721575,94.3162055 308.10914,96 C308.502202,97.6986166 309.750106,99 311.184921,99 C312.622484,99 313.27942,97.68083 312.889107,96 C312.496044,94.3013834 311.237146,93 309.813326,93 L309.813326,93 Z" id="Fill-70" fill="#3662C1"></path>
                <path d="M319.693897,97.2357642 C319.353058,97.2357642 319.045695,96.8941059 318.948312,96.4985015 C318.844843,96.0969031 318.948312,95.7612388 319.304367,95.7612388 C319.645206,95.7612388 319.95257,96.1058941 320.052996,96.4985015 C320.153421,96.8941059 320.052996,97.2357642 319.693897,97.2357642 Z M320.947698,96.4985015 C320.734673,95.6623377 319.989088,95 319.127861,95 C318.260548,95 317.843629,95.6713287 318.05361,96.4985015 C318.266634,97.3376623 319.01222,98 319.870403,98 C320.737717,98 321.154636,97.3196803 320.947698,96.4985015 L320.947698,96.4985015 Z" id="Fill-71" fill="#3662C1"></path>
                <polyline id="Fill-72" fill="#3662C1" points="317.953653 93 315 99 316.043205 99 319 93 317.953653 93"></polyline>
                <path d="M314.948243,94.4985015 C314.844781,94.0969031 314.948243,93.7612388 315.304272,93.7612388 C315.645086,93.7612388 315.952427,94.1058941 316.052845,94.4985015 C316.153264,94.8941059 316.052845,95.2357642 315.696817,95.2357642 C315.356002,95.2357642 315.045618,94.8941059 314.948243,94.4985015 Z M316.947482,94.4985015 C316.734473,93.6623377 315.988943,93 315.127779,93 C314.260529,93 313.84364,93.6713287 314.053606,94.4985015 C314.266615,95.3376623 315.012146,96 315.870266,96 C316.740559,96 317.154405,95.3196803 316.947482,94.4985015 L316.947482,94.4985015 Z" id="Fill-73" fill="#3662C1"></path>
                <path d="M258.43871,163 C260.248349,163 261.350911,161.658436 260.898501,160.001372 C260.446091,158.344307 258.615479,157 256.80584,157 L111.56129,157 C109.751651,157 108.649089,158.344307 109.101499,160.001372 C109.553909,161.658436 111.384521,163 113.19416,163 L258.43871,163" id="Fill-74" fill="#C1D4FA"></path>
                <path d="M261.438693,174 C263.248345,174 264.350914,172.655693 263.898501,170.998628 C263.449084,169.341564 261.615464,168 259.805813,168 L114.560326,168 C112.750675,168 111.651102,169.341564 112.100519,170.998628 C112.552932,172.655693 114.386552,174 116.196203,174 L261.438693,174" id="Fill-75" fill="#C1D4FA"></path>
                <path d="M266.899481,181.998628 C266.447068,180.341564 264.613448,179 262.803797,179 L117.561307,179 C115.751655,179 114.649086,180.341564 115.101499,181.998628 C115.550916,183.655693 117.384536,185 119.194187,185 L264.439674,185 C266.249325,185 267.348898,183.655693 266.899481,181.998628" id="Fill-76" fill="#C1D4FA"></path>
                <path d="M179.075654,146.053813 C179.650249,148.233694 181.988149,150 184.295648,150 L200.733915,150 C203.041413,150 204.445977,148.233694 203.871383,146.053813 L195.924346,115.946187 C195.349751,113.766306 193.011851,112 190.704352,112 L174.266085,112 C171.958587,112 170.554023,113.766306 171.128617,115.946187 L179.075654,146.053813" id="Fill-77" fill="#C1D4FA"></path>
                <path d="M207.073501,146.053813 C207.651115,148.233694 209.985892,150 212.296348,150 L228.734031,150 C231.041447,150 232.445962,148.233694 231.871387,146.053813 L223.924633,115.946187 C223.350059,113.766306 221.012242,112 218.704825,112 L202.267143,112 C199.956686,112 198.552172,113.766306 199.129786,115.946187 L207.073501,146.053813" id="Fill-78" fill="#C1D4FA"></path>
                <path d="M235.074209,146.053813 C235.648833,148.233694 237.986852,150 240.294468,150 L256.733571,150 C259.044227,150 260.445822,148.233694 259.871199,146.053813 L251.926798,115.946187 C251.349134,113.766306 249.014155,112 246.703499,112 L230.264396,112 C227.95678,112 226.552144,113.766306 227.129808,115.946187 L235.074209,146.053813" id="Fill-79" fill="#C1D4FA"></path>
                <path d="M173.785877,143.382813 L167.3033,118.617187 C166.347497,114.961076 162.460967,112 158.625694,112 L103.430325,112 C99.5920373,112 97.2583098,114.961076 98.2141129,118.617187 L104.699704,143.382813 C105.655507,147.038924 109.542038,150 113.377311,150 L168.572679,150 C172.407952,150 174.74168,147.038924 173.785877,143.382813" id="Fill-80" fill="#C1D4FA"></path>
                <path d="M157.762821,121 C158.633864,121 159.169191,120.325071 158.951431,119.49857 C158.73367,118.674929 157.844482,118 156.970415,118 L105.240193,118 C104.366126,118 103.830798,118.674929 104.048559,119.49857 C104.266319,120.325071 105.158532,121 106.029575,121 L157.762821,121" id="Fill-81" fill="#3662C1"></path>
                <path d="M159.762821,127 C160.633864,127 161.169191,126.325071 160.951431,125.49857 C160.73367,124.674929 159.841457,124 158.970415,124 L107.240193,124 C106.366126,124 105.830798,124.674929 106.048559,125.49857 C106.266319,126.325071 107.158532,127 108.029575,127 L159.762821,127" id="Fill-82" fill="#3662C1"></path>
                <path d="M161.951441,131.49857 C161.733681,130.674929 160.841467,130 159.970425,130 L108.240193,130 C107.366126,130 106.830798,130.674929 107.048559,131.49857 C107.266319,132.325071 108.158533,133 109.029575,133 L160.759807,133 C161.633874,133 162.169202,132.325071 161.951441,131.49857" id="Fill-83" fill="#3662C1"></path>
                <path d="M122.032514,136 L110.202247,136 C109.354924,136 108.835975,136.674929 109.047073,137.49857 C109.258171,138.325071 110.123085,139 110.967476,139 L122.800675,139 C123.645066,139 124.164015,138.325071 123.952917,137.49857 C123.741819,136.674929 122.879837,136 122.032514,136" id="Fill-84" fill="#3662C1"></path>
                <path d="M387.887628,210.516352 L384.47495,197.483648 C383.972729,195.558853 381.927542,194 379.906558,194 L350.856432,194 C348.838473,194 347.610151,195.558853 348.112372,197.483648 L351.52505,210.516352 C352.030296,212.441147 354.072458,214 356.093442,214 L385.143568,214 C387.161527,214 388.389849,212.441147 387.887628,210.516352" id="Fill-85" fill="#C1D4FA"></path>
                <path d="M379.344844,199 C379.806947,199 380.089681,198.552727 379.974155,198 C379.85863,197.450909 379.387406,197 378.928344,197 L351.652126,197 C351.193063,197 350.91033,197.450909 351.025855,198 C351.141381,198.552727 351.609564,199 352.071667,199 L379.344844,199" id="Fill-86" fill="#3662C1"></path>
                <path d="M380.34598,202 C380.805061,202 381.087806,201.552727 380.975316,201 C380.859786,200.450909 380.388544,200 379.929463,200 L352.652152,200 C352.193071,200 351.910326,200.450909 352.025856,201 C352.138346,201.552727 352.609588,202 353.068669,202 L380.34598,202" id="Fill-87" fill="#3662C1"></path>
                <path d="M381.974144,204 C381.861654,203.450909 381.390412,203 380.931331,203 L353.65402,203 C353.194939,203 352.912194,203.450909 353.024684,204 C353.140214,204.552727 353.611456,205 354.070537,205 L381.347848,205 C381.806929,205 382.089674,204.552727 381.974144,204" id="Fill-88" fill="#3662C1"></path>
                <path d="M360.950318,206 L354.639448,206 C354.18931,206 353.912073,206.450909 354.025353,207 C354.138632,207.552727 354.597713,208 355.050832,208 L361.358721,208 C361.808859,208 362.086096,207.552727 361.975797,207 C361.862518,206.450909 361.400456,206 360.950318,206" id="Fill-89" fill="#3662C1"></path>
                <path d="M188.039519,200 C188.718649,200 189.129702,199.551515 188.962898,199.001212 C188.793115,198.448485 188.105049,198 187.425919,198 L132.961454,198 C132.282324,198 131.868292,198.448485 132.038075,199.001212 C132.207858,199.551515 132.895924,200 133.572075,200 L188.039519,200" id="Fill-90" fill="#FA7269"></path>
                <path d="M189.038515,204 C189.717667,204 190.131712,203.551515 189.961924,202.998788 C189.792136,202.446061 189.104048,202 188.427874,202 L133.958692,202 C133.27954,202 132.868474,202.446061 133.038262,202.998788 C133.205071,203.551515 133.893159,204 134.572311,204 L189.038515,204" id="Fill-91" fill="#FA7269"></path>
                <path d="M189.425919,206 L134.961454,206 C134.282324,206 133.868292,206.448485 134.038075,206.998788 C134.207858,207.551515 134.895924,208 135.575054,208 L190.039519,208 C190.718649,208 191.129702,207.551515 190.962898,206.998788 C190.793115,206.448485 190.105049,206 189.425919,206" id="Fill-92" fill="#FA7269"></path>
                <path d="M258.038562,200 C258.717681,200 259.131705,199.551515 258.961926,199.001212 C258.792146,198.448485 258.104091,198 257.424973,198 L202.961438,198 C202.282319,198 201.868295,198.448485 202.038074,199.001212 C202.207854,199.551515 202.895909,200 203.575027,200 L258.038562,200" id="Fill-93" fill="#FA7269"></path>
                <path d="M259.038512,204 C259.717667,204 260.131712,203.551515 259.961924,202.998788 C259.792135,202.446061 259.107024,202 258.427869,202 L203.958519,202 C203.282344,202 202.868298,202.446061 203.038087,202.998788 C203.204896,203.551515 203.892987,204 204.572141,204 L259.038512,204" id="Fill-94" fill="#FA7269"></path>
                <path d="M260.424973,206 L205.961438,206 C205.282319,206 204.868295,206.448485 205.038074,206.998788 C205.207854,207.551515 205.895909,208 206.575027,208 L261.038562,208 C261.717681,208 262.131705,207.551515 261.961926,206.998788 C261.792146,206.448485 261.104091,206 260.424973,206" id="Fill-95" fill="#FA7269"></path>
                <path d="M327.038562,200 C327.717681,200 328.131705,199.551515 327.961926,199.001212 C327.792146,198.448485 327.104091,198 326.424973,198 L271.961438,198 C271.282319,198 270.868295,198.448485 271.038074,199.001212 C271.207854,199.551515 271.895909,200 272.575027,200 L327.038562,200" id="Fill-96" fill="#FA7269"></path>
                <path d="M328.041484,204 C328.717657,204 329.131701,203.551515 328.961913,202.998788 C328.792125,202.446061 328.107016,202 327.427864,202 L272.958691,202 C272.279539,202 271.868474,202.446061 272.038262,202.998788 C272.205071,203.551515 272.893159,204 273.572311,204 L328.041484,204" id="Fill-97" fill="#FA7269"></path>
                <path d="M329.961926,206.998788 C329.792146,206.448485 329.104091,206 328.424973,206 L273.961438,206 C273.282319,206 272.868295,206.448485 273.038074,206.998788 C273.207854,207.551515 273.895909,208 274.575027,208 L329.038562,208 C329.717681,208 330.131705,207.551515 329.961926,206.998788" id="Fill-98" fill="#FA7269"></path>
                <path d="M123.887852,193.190548 C123.32684,193.190548 122.85583,193.388972 122.561824,193.748437 C122.249817,194.133783 122.159815,194.66004 122.309818,195.235184 L126.533909,211.477244 C126.863916,212.742561 128.249946,213.809452 129.560975,213.809452 L341.110544,213.809452 C341.671556,213.809452 342.142566,213.611028 342.436572,213.251563 C342.751579,212.866217 342.838581,212.33996 342.691578,211.764816 L338.464487,195.522756 C338.13748,194.257439 336.75145,193.190548 335.437421,193.190548 L123.887852,193.190548 Z M341.110544,215 L129.560975,215 C127.691934,215 125.792893,213.547762 125.330883,211.764816 L121.106792,195.522756 C120.863787,194.59965 121.040791,193.685171 121.583802,193.018005 C122.117814,192.362341 122.936832,192 123.887852,192 L335.437421,192 C337.306462,192 339.205503,193.452238 339.670513,195.235184 L343.894604,211.477244 C344.134609,212.40035 343.960605,213.314829 343.414593,213.981995 C342.880582,214.637659 342.061564,215 341.110544,215 L341.110544,215 Z" id="Fill-99" fill="#FA7269"></path>
                <path d="M130.995779,24.5457723 C130.962603,24.3132403 130.739419,24.1518736 130.501156,24.1837955 L125.732876,24.8313122 C125.560965,23.3605618 124.70744,21.9811842 123.295956,21.1848938 L123.006421,21.0220628 C121.531602,20.1903362 119.78836,20.186529 118.349733,20.8563032 L116.464739,16.2674565 C116.377276,16.0495676 116.120916,15.9435517 115.897733,16.0302387 C115.671534,16.1172186 115.562958,16.3643937 115.653438,16.5822827 L117.589704,21.2967669 C117.282073,21.5111415 116.998569,21.757438 116.745226,22.0412208 C116.546171,22.2635027 116.365212,22.5083349 116.20838,22.772496 L115.683598,23.6484447 C113.210486,22.2529597 111.3647,21.2127157 111.301365,21.176108 C111.090245,21.0580848 110.821822,21.1272001 110.701183,21.3301531 C110.580543,21.5331061 110.649911,21.7931671 110.86103,21.9111903 C110.924366,21.947798 112.770152,22.988042 115.243263,24.383527 L114.947696,24.8808058 C114.661177,25.3564129 114.47117,25.8613061 114.368626,26.3741066 L108.375854,27.1879686 C108.137591,27.2204763 107.968696,27.4354366 108.004888,27.6676758 C108.035048,27.8802932 108.222039,28.0337526 108.436174,28.0337526 L108.496494,28.0296526 L114.278147,27.2444909 C114.263067,28.9293231 115.149768,30.5801833 116.748242,31.4821967 L117.037777,31.6450277 C118.572916,32.5116048 120.400606,32.4823187 121.872409,31.7270289 L123.926298,36.7323246 C123.995666,36.8986699 124.158529,37 124.333457,37 C124.387745,37 124.442033,36.9903356 124.49632,36.9698353 C124.719504,36.8828554 124.831095,36.6356803 124.740616,36.4174985 L122.620375,31.2537647 C123.096901,30.8888593 123.513108,30.4340454 123.835819,29.8945945 L124.134402,29.3973157 C126.652753,30.8174011 128.516635,31.8699453 128.516635,31.8699453 C128.586003,31.9088959 128.661402,31.927639 128.736802,31.927639 C128.887602,31.927639 129.035385,31.8517879 129.116817,31.7159001 C129.237456,31.5129471 129.165073,31.253179 128.956969,31.1351558 C128.956969,31.1351558 127.090072,30.0826116 124.57172,28.6625262 L125.096502,27.7865775 C125.25635,27.5221236 125.386037,27.2491767 125.485565,26.9706654 C125.63938,26.550702 125.723828,26.1187313 125.753988,25.6864678 L130.621796,25.0254794 C130.863075,24.9929718 131.028954,24.7780114 130.995779,24.5457723" id="Fill-100" fill="#C1D4FA"></path>
                <path d="M31.6867868,79.2874303 L26.2699727,77.7480071 C26.2640397,77.1494746 26.1483466,76.5429181 25.9080607,75.9571646 L25.6885403,75.4168805 L30.3014351,73.5235089 C30.523922,73.4331644 30.6277492,73.1814479 30.5387544,72.9609359 C30.4467932,72.7407211 30.1976079,72.6352201 29.975121,72.7255646 L25.3622262,74.6189363 L24.9736158,73.6676441 C24.8549561,73.3808596 24.715531,73.1107176 24.552374,72.8592983 C24.3061551,72.4803862 24.009506,72.1454576 23.6802254,71.8554042 L26.0712178,67.6442793 C26.1869109,67.4374379 26.1157151,67.1741311 25.9080607,67.0564455 C25.7033728,66.9387599 25.439355,67.010976 25.3206953,67.2184118 L22.9801333,71.3430556 C21.6986088,70.5662115 20.0789043,70.3804703 18.5926919,70.9902959 L18.2871432,71.115114 C16.735668,71.7519835 15.6884964,73.111312 15.3621823,74.6483577 L10.5475661,73.2804108 C10.3191462,73.2150299 10.0818269,73.3484664 10.016564,73.5775967 C9.95130122,73.8067271 10.0847934,74.0450702 10.3132132,74.1101539 L15.2583551,75.5155463 C15.2494556,75.8867315 15.276154,76.2617802 15.3503163,76.6344514 C15.4096462,76.9286655 15.4986409,77.2205021 15.6173006,77.5075837 L16.005911,78.4588759 L11.3900498,80.3522476 C11.1705294,80.4425921 11.0667021,80.6943086 11.1556969,80.9145234 C11.2239262,81.0815419 11.3841168,81.1825851 11.5532068,81.1825851 C11.6095701,81.1825851 11.662967,81.1721836 11.7163639,81.1501918 L16.3322251,79.2568202 L16.5517455,79.796807 C16.7623664,80.3136134 17.0560491,80.7736572 17.4060952,81.171292 L14.4633353,86.3557009 C14.3446756,86.5625423 14.4188379,86.825849 14.6264923,86.9438319 C14.6917551,86.9818717 14.7659174,87 14.8371132,87 C14.9884043,87 15.1337624,86.9215429 15.2108912,86.7818655 L18.0498239,81.7808204 C19.3906782,82.8367221 21.2506686,83.1651125 22.9326694,82.4741552 L23.2382181,82.3496343 C24.8549561,81.6860181 25.9258597,80.2402085 26.2017434,78.6250028 L31.4524339,80.1171735 C31.4909983,80.1284665 31.5325292,80.1338159 31.5710936,80.1338159 C31.7579826,80.1338159 31.9300391,80.0098893 31.983436,79.8199875 C32.0486988,79.5908572 31.9152066,79.352514 31.6867868,79.2874303" id="Fill-102" fill="#C1D4FA"></path>
                <path d="M86.8146147,231 C86.7786984,231.023126 86.739789,231.054925 86.6919006,231.089614 C84.8721393,232.433831 72.4959667,240.588747 44.6937256,236.978152 C44.5021718,238.010163 44.3255831,239.033503 44.1609665,240.042388 C44.0771617,240.548276 43.9933569,241.051273 43.9185312,241.55138 C43.8407125,242.045705 43.7628937,242.537139 43.6940541,243.025682 L43.688068,243.051699 C43.6162354,243.543134 43.5444027,244.028786 43.478556,244.51733 C43.4097164,245.005873 43.3438698,245.488635 43.2810162,245.974287 C43.2151695,246.454158 43.158302,246.931138 43.0984414,247.408119 L43.0954484,247.431245 C43.0385809,247.902443 42.9817133,248.373642 42.9308318,248.84195 C42.8769573,249.313149 42.8290689,249.781456 42.7781874,250.252655 C42.7302989,250.718072 42.6824105,251.183489 42.6405081,251.646015 C42.5956127,252.105651 42.5537103,252.565286 42.5177939,253.022031 C42.4878636,253.357362 42.4579334,253.686912 42.4339891,254.019353 C42.4100449,254.293978 42.3890937,254.568603 42.3711355,254.840337 C42.3531774,255.0716 42.3382122,255.302863 42.3232471,255.534127 C42.314268,255.65554 42.3052889,255.776953 42.2993028,255.898366 C42.2723656,256.288622 42.2484214,256.673097 42.2244771,257.057572 C42.2005329,257.470955 42.1795817,257.884338 42.1586305,258.29483 C42.1556375,258.372881 42.1526445,258.450933 42.1466584,258.528984 C42.1346863,258.835408 42.1197211,259.141831 42.107749,259.442473 C42.0987699,259.6853 42.0867978,259.922344 42.0808118,260.16228 C42.0538745,260.93123 42.0329233,261.688616 42.0209512,262.440222 C42.0149651,262.787116 42.0089791,263.13112 42.0059861,263.472233 C42.002993,263.876944 42,264.275873 42,264.674801 C42,264.7066 42,264.735508 42,264.767307 C42,265.157563 42,265.544929 42.0059861,265.929404 C42.0059861,266.250281 42.0119721,266.568268 42.0179582,266.886255 C42.0209512,267.157989 42.0269373,267.429723 42.0359163,267.698567 C42.0359163,267.791072 42.0389094,267.886468 42.0419024,267.981864 C42.0478885,268.262271 42.0568675,268.542677 42.0658466,268.820193 C42.0778187,269.120835 42.0867978,269.418586 42.0987699,269.713447 C42.1137351,270.034324 42.1287002,270.352311 42.1466584,270.664516 C42.1616235,271.037428 42.1825747,271.404558 42.2035259,271.771689 C42.206519,271.803487 42.209512,271.838177 42.209512,271.869975 C42.2304632,272.231324 42.2574004,272.589782 42.2813447,272.945349 C42.3082819,273.321151 42.3352192,273.694063 42.3651495,274.061193 C42.3950798,274.434105 42.4280031,274.801235 42.4609264,275.165475 C42.4938497,275.532605 42.526773,275.893954 42.5656824,276.252412 C42.6015987,276.599306 42.6375151,276.937529 42.6764244,277.278642 C42.6794175,277.319113 42.6854035,277.359584 42.6883965,277.400055 C42.7273059,277.732496 42.7632223,278.062045 42.8051246,278.388705 C42.8500201,278.735599 42.8919225,279.079603 42.9398109,279.423607 L42.942804,279.449624 C42.9906924,279.790737 43.0325948,280.12896 43.0834763,280.464291 C43.1313647,280.802513 43.1822462,281.137845 43.2361207,281.473177 L43.2391138,281.502084 C43.2929883,281.828744 43.3438698,282.152512 43.3977443,282.47628 L43.4007373,282.493625 C43.4546118,282.823175 43.5144724,283.146943 43.5713399,283.473603 C43.6282075,283.800262 43.6910611,284.126921 43.7509216,284.447798 C43.8257473,284.846727 43.9035661,285.239875 43.9813848,285.630131 C44.0322663,285.872957 44.0801548,286.115784 44.1340293,286.35861 C44.1968829,286.662143 44.2627295,286.962785 44.3285761,287.257645 C44.3405482,287.298116 44.3495273,287.335697 44.3585064,287.376168 C44.418367,287.656574 44.4842136,287.936981 44.5500602,288.214497 C44.6188999,288.518029 44.6937256,288.818671 44.7715443,289.122204 C44.9241888,289.740833 45.0798263,290.35079 45.2444428,290.949183 C45.3192685,291.223808 45.3940942,291.492651 45.471913,291.764385 C45.5527248,292.047683 45.6335365,292.325199 45.7143483,292.602714 C45.7742089,292.80796 45.8370625,293.010316 45.896923,293.215562 C45.9567836,293.417917 46.0196372,293.61449 46.0824908,293.816846 C46.1303792,293.972948 46.1842538,294.129051 46.2321422,294.288044 C46.3219331,294.562669 46.4087309,294.831513 46.4955287,295.100356 C46.6781034,295.640934 46.8636712,296.172839 47.049239,296.696072 C47.1420228,296.956243 47.2377998,297.216414 47.3335767,297.473694 C47.4293536,297.730974 47.5251305,297.988254 47.6209074,298.239753 C47.8872869,298.930651 48.1596525,299.609987 48.4409972,300.271978 C48.521809,300.468551 48.6056138,300.665125 48.6924116,300.861699 C48.8121327,301.144996 48.9348469,301.425402 49.0605541,301.702918 C49.156331,301.919727 49.2551009,302.136537 49.3568639,302.353346 C49.892616,303.518334 50.4463262,304.637069 51.0150016,305.70377 C51.1257437,305.917689 51.2364857,306.122935 51.3502208,306.331071 C51.6195934,306.819615 51.8889659,307.299486 52.1613315,307.770684 C52.2571084,307.935459 52.3558784,308.100234 52.4516553,308.265009 C52.5414461,308.41533 52.63423,308.568542 52.7240209,308.715972 C52.8287769,308.892311 52.9365259,309.065758 53.0382889,309.236314 C53.2837172,309.629462 53.5261525,310.013937 53.7745739,310.389739 C53.8583787,310.522716 53.9451765,310.64991 54.0289813,310.777105 C54.2953608,311.181815 54.5647334,311.574963 54.8341059,311.962328 C54.9298828,312.101086 55.0256597,312.236953 55.1244297,312.37282 C55.7589517,313.266074 56.3934737,314.104403 57.0279958,314.893589 C57.1447239,315.041019 57.264445,315.185558 57.3811731,315.330098 C57.9917509,316.075921 58.5993357,316.781274 59.1979414,317.440374 C59.3894952,317.64851 59.578056,317.856647 59.7666168,318.056112 L59.8174983,318.108146 C59.9312333,318.226668 60.0419754,318.348081 60.1557105,318.463713 C60.8351279,319.171956 61.4965872,319.819493 62.1400883,320.414996 C62.2448443,320.513282 62.3496003,320.611569 62.4573493,320.706965 C62.6668613,320.903539 62.8763733,321.088549 63.0828923,321.267778 C63.2804322,321.441226 63.471986,321.608891 63.6605468,321.767885 L63.6904771,321.793902 C63.8790379,321.950005 64.0616126,322.106107 64.2411943,322.253537 C64.5524692,322.507927 64.8577581,322.750753 65.1480819,322.979125 C65.2318867,323.039832 65.3097054,323.103429 65.3935102,323.164136 C65.9262693,323.571737 66.423112,323.930195 66.8780523,324.245291 C67.0157316,324.337796 67.1504179,324.430302 67.2761251,324.517025 C67.6592328,324.771415 68.003431,324.991115 68.3057269,325.173234 C68.3985108,325.233941 68.4853086,325.285975 68.5691134,325.335119 C68.7576742,325.444969 68.9222908,325.543255 69.0659561,325.624197 C69.0988794,325.644433 69.1318028,325.658887 69.161733,325.676232 C69.1946563,325.693576 69.2245866,325.713812 69.2545169,325.728266 C69.5897361,325.916167 69.7723108,326 69.7723108,326 C71.5501697,325.442078 73.268168,324.82634 74.9352849,324.152786 C85.4497938,319.900435 93.7674198,313.445303 100.349089,305.966832 L100.399971,305.906125 C114.565974,289.775523 120.656787,268.901135 123.260722,255.083163 C123.54506,253.551045 123.793481,252.108542 124,250.767215 C96.0540935,244.624289 87.688579,232.399142 86.8146147,231" id="Fill-104" fill="#3662C1"></path>
                <path d="M119.321403,257.052003 C116.94331,269.70998 111.370406,288.826168 98.4140043,303.59526 L98.365962,303.653338 C92.3456642,310.503571 84.7399712,316.412951 75.1225078,320.307043 C73.6001681,320.922664 72.0267836,321.488919 70.4023541,322 C70.4023541,322 70.2342061,321.921595 69.9279366,321.750267 C69.9009128,321.735748 69.873889,321.718324 69.8438626,321.700901 C69.8168388,321.686382 69.7868124,321.671862 69.756786,321.654439 C69.6246697,321.578939 69.4745376,321.491822 69.303387,321.390187 C69.2253183,321.343725 69.1442469,321.297263 69.0631756,321.242089 C68.7839299,321.073665 68.4686524,320.873298 68.1203459,320.640988 C68.0032429,320.562583 67.8801345,320.478371 67.7540235,320.391255 C67.3366563,320.103772 66.8832573,319.775634 66.3968292,319.401035 C66.3217632,319.345861 66.2496997,319.287784 66.1746337,319.23261 C65.9073985,319.023531 65.6281528,318.802837 65.3429018,318.567623 C65.1807591,318.434045 65.0126111,318.291756 64.8384578,318.146562 L64.8114341,318.123331 C64.6402834,317.978138 64.4631276,317.824232 64.282969,317.664519 C64.0938025,317.498999 63.9046361,317.330574 63.712467,317.153438 C63.6133798,317.063418 63.5172952,316.973398 63.4212107,316.883378 C62.8356954,316.340354 62.226159,315.74506 61.6076147,315.097497 C61.5025222,314.990053 61.4004324,314.879706 61.2953399,314.772263 L61.2533029,314.725801 C61.0791497,314.539953 60.9049964,314.351202 60.7308431,314.159546 C60.1843622,313.555541 59.6288734,312.910881 59.0673793,312.228471 C58.9622868,312.097797 58.851189,311.961315 58.7460966,311.830641 C58.1665866,311.104673 57.584074,310.335147 57.004564,309.519159 C56.9174874,309.397196 56.8274081,309.269426 56.7403315,309.141656 C56.4941148,308.790287 56.2478982,308.427303 56.0016815,308.058511 C55.9266154,307.942356 55.8455441,307.823298 55.770478,307.704239 C55.5452798,307.358678 55.3200817,307.00731 55.0978861,306.64723 C55.0018016,306.490421 54.905717,306.333611 54.8096325,306.170995 C54.7255585,306.034513 54.6444871,305.895127 54.5604132,305.755741 C54.4733365,305.607644 54.3802546,305.456642 54.2961806,305.305641 C54.0439587,304.872964 53.797742,304.434479 53.554528,303.984379 C53.4494355,303.795628 53.3473457,303.606876 53.2452558,303.412316 C52.7257987,302.436615 52.2213548,301.411549 51.7289215,300.342924 C51.6358395,300.145461 51.5487629,299.947997 51.4586836,299.74763 C51.3445832,299.492089 51.2334855,299.236549 51.1223877,298.978104 C51.044319,298.798064 50.9662503,298.618024 50.8911842,298.437984 C50.6359596,297.831075 50.3867403,297.209646 50.1435263,296.576602 C50.053447,296.344292 49.9663704,296.109079 49.8792938,295.873865 C49.7922172,295.638652 49.7051405,295.403438 49.6210665,295.162417 C49.4499159,294.683278 49.2787653,294.195427 49.11362,293.701769 C49.0325486,293.45494 48.9544799,293.208111 48.8734086,292.958378 C48.828369,292.813184 48.7803267,292.667991 48.7352871,292.525701 C48.6782368,292.339853 48.6211866,292.159813 48.5671391,291.973965 C48.5100889,291.788117 48.4530387,291.60227 48.3989911,291.413518 C48.3239251,291.160881 48.248859,290.90534 48.1767956,290.643992 C48.1077348,290.397163 48.0356714,290.150334 47.9696133,289.900601 C47.8194811,289.351769 47.6753543,288.794226 47.5342301,288.225067 C47.4651693,287.949199 47.3991112,287.673331 47.3330531,287.394559 C47.2760029,287.141923 47.2129474,286.883478 47.1588998,286.627937 C47.1498919,286.593091 47.140884,286.55534 47.1318761,286.520494 C47.0718232,286.24753 47.0117704,285.974566 46.9517175,285.695794 C46.9066779,285.472196 46.8616382,285.251502 46.813596,285.027904 C46.7415325,284.670728 46.6724718,284.310648 46.603411,283.947664 C46.5463608,283.651469 46.4923132,283.35237 46.4382657,283.053271 C46.3842181,282.754172 46.3331732,282.457977 46.2821283,282.155975 L46.2791256,282.141455 C46.2310834,281.842356 46.1830411,281.546162 46.1349988,281.247063 L46.1319962,281.220928 C46.0839539,280.916021 46.0359116,280.608211 45.9938746,280.297497 C45.9458323,279.989686 45.906798,279.678972 45.8617583,279.368258 L45.8587557,279.345027 C45.8167187,279.028505 45.7776844,278.714887 45.73865,278.395461 C45.6996157,278.096362 45.6665866,277.797263 45.6305549,277.492356 C45.6275522,277.454606 45.621547,277.416856 45.6185443,277.382009 C45.5825126,277.068391 45.5494835,276.757677 45.5194571,276.441155 C45.4834254,276.113017 45.453399,275.779072 45.4233726,275.445127 C45.3933461,275.111182 45.3633197,274.774332 45.3362959,274.434579 C45.3092722,274.09773 45.2822484,273.755073 45.2582272,273.412417 C45.2372087,273.084279 45.2131876,272.759045 45.1951718,272.428004 C45.1921691,272.398965 45.1891665,272.367023 45.1891665,272.33508 C45.168148,272.001135 45.1501321,271.664286 45.1351189,271.324533 C45.1201057,271.037049 45.1050925,270.743758 45.0930819,270.453371 C45.0810713,270.180407 45.0720634,269.910347 45.0630555,269.634479 C45.0540476,269.378939 45.0450396,269.123398 45.0390344,268.864953 C45.0360317,268.780741 45.0360317,268.690721 45.0330291,268.606509 C45.0270238,268.35968 45.0210185,268.11285 45.0180159,267.863117 C45.0120106,267.57273 45.0090079,267.282343 45.0060053,266.989052 C45.0030026,266.63478 45.0030026,266.280507 45,265.923331 C45,265.894292 45,265.868158 45,265.839119 C45,265.473231 45.0030026,265.107343 45.0060053,264.735648 C45.0090079,264.424933 45.0150132,264.108411 45.0210185,263.791889 C45.0330291,263.103672 45.0510449,262.409646 45.0750661,261.704005 C45.0810713,261.486215 45.0900793,261.268425 45.0990872,261.04773 C45.1110978,260.768959 45.1231083,260.490187 45.1351189,260.208511 C45.1411242,260.135915 45.1441268,260.066222 45.1471295,259.993625 C45.1651453,259.619025 45.1861638,259.241522 45.2071823,258.864019 C45.2282008,258.509746 45.252222,258.155474 45.2732405,257.801202 C45.2792457,257.690854 45.2882537,257.580507 45.2972616,257.467256 C45.3092722,257.255274 45.3242854,257.043291 45.3423012,256.831308 C45.3573144,256.581575 45.3753303,256.331842 45.3963488,256.079206 C45.4203699,255.777203 45.4473937,255.472296 45.4744175,255.16739 C45.5104492,254.749232 45.5464809,254.325267 45.5885179,253.907109 C45.6245496,253.483144 45.6695892,253.056275 45.7146289,252.629406 C45.7596685,252.199633 45.8017055,251.76986 45.8527504,251.340087 C45.9007927,250.910314 45.9518376,250.477637 46.0028825,250.04496 L46.0058852,250.024633 C46.0599327,249.589052 46.1139803,249.153471 46.1740331,248.712083 C46.2310834,248.26779 46.2911362,247.823498 46.3541917,247.379206 C46.4142445,246.932009 46.4803027,246.484813 46.5463608,246.034713 L46.5493634,246.011482 C46.6154216,245.564286 46.6844823,245.114186 46.7565458,244.661182 C46.8256065,244.205274 46.9006726,243.743558 46.9787413,243.278939 C47.1288734,242.355507 47.2910161,241.417557 47.4651693,240.473798 C72.8945472,243.778405 84.2115061,236.31255 85.8779726,235.081308 C85.9230123,235.049366 85.9560413,235.020327 85.9890704,235 C86.7877732,236.280607 94.4385059,247.475033 120,253.099833 C119.807831,254.328171 119.582633,255.652336 119.321403,257.052003" id="Fill-105" fill="#C1D4FA"></path>
                <path d="M86,234 L69.8671829,321 C69.6994448,320.906905 69.4897721,320.787627 69.2441555,320.639258 C69.166277,320.59271 69.0854033,320.546163 69.0045295,320.490888 C68.7259643,320.322153 68.4114553,320.121418 68.0639977,319.888681 C67.94718,319.810132 67.8243717,319.725765 67.6985681,319.638489 C67.282218,319.350477 66.829924,319.021735 66.3446815,318.646447 C66.2697984,318.591172 66.1979106,318.532988 66.1230275,318.477713 C65.8564436,318.268249 65.5778784,318.047149 65.2933226,317.811503 C65.1315751,317.677679 64.9638369,317.535128 64.7901081,317.389667 L64.7631502,317.366394 C64.5924167,317.220933 64.4156926,317.066745 64.2359731,316.906738 C64.0472677,316.740913 63.8585622,316.572179 63.6668615,316.394717 C63.5680158,316.304531 63.4721654,316.214345 63.376315,316.12416 C62.7922268,315.580137 62.1841759,314.983749 61.5671391,314.334994 C61.4623027,314.227353 61.3604617,314.116803 61.2556254,314.009162 L61.2136908,313.962615 C61.039962,313.776425 60.8662332,313.587327 60.6925044,313.395319 C60.1473553,312.790202 59.5932203,312.144357 59.0330947,311.460692 C58.9282583,311.329778 58.8174313,311.193045 58.712595,311.06213 C58.1344974,310.334827 57.5534044,309.563886 56.9753068,308.746397 C56.8884424,308.62421 56.7985827,308.496205 56.7117183,308.368199 C56.4661017,308.016185 56.2204851,307.652533 55.9748685,307.283063 C55.8999854,307.166695 55.8191116,307.047417 55.7442285,306.928139 C55.5195792,306.581943 55.2949299,306.229928 55.0732759,305.869186 C54.9774255,305.712088 54.8815751,305.554991 54.7857247,305.392075 C54.7018556,305.255342 54.6209819,305.1157 54.5371128,304.976058 C54.4502484,304.827688 54.3573933,304.676409 54.2735243,304.52513 C54.021917,304.091657 53.7763004,303.652366 53.5336791,303.201438 C53.4288428,303.012339 53.3270018,302.82324 53.2251607,302.628323 C52.7069696,301.650828 52.2037551,300.623876 51.7125219,299.553285 C51.6196669,299.355459 51.5328025,299.157633 51.4429427,298.956897 C51.3291204,298.700886 51.2182934,298.444875 51.1074664,298.185956 C51.029588,298.005584 50.9517095,297.825213 50.8768264,297.644842 C50.6222238,297.036817 50.3736119,296.414245 50.1309906,295.780037 C50.0411309,295.5473 49.9542665,295.311654 49.8674021,295.076007 C49.7805377,294.840361 49.6936733,294.604715 49.6098042,294.36325 C49.4390707,293.88323 49.2683372,293.394483 49.1035944,292.899916 C49.0227206,292.652633 48.9448422,292.40535 48.8639684,292.155158 C48.8190386,292.009697 48.7711134,291.864237 48.7261835,291.721685 C48.6692724,291.535496 48.6123612,291.355125 48.5584454,291.168935 C48.5015342,290.982745 48.444623,290.796556 48.3907072,290.607457 C48.3158241,290.354355 48.240941,290.098345 48.1690532,289.836516 C48.1001607,289.589233 48.0282729,289.34195 47.9623758,289.091757 C47.8126096,288.541916 47.668834,287.983347 47.5280538,287.413142 C47.4591613,287.136766 47.3932642,286.860391 47.327367,286.581107 C47.2704559,286.328005 47.2075541,286.069085 47.1536382,285.813075 C47.1446523,285.778164 47.1356663,285.740344 47.1266803,285.705434 C47.0667738,285.431968 47.0068673,285.158502 46.9469608,284.879218 C46.902031,284.655208 46.8571011,284.434108 46.8091759,284.210099 C46.7372881,283.852266 46.6683957,283.491523 46.5995032,283.127872 C46.5425921,282.831132 46.4886762,282.531483 46.4347604,282.231834 C46.3808445,281.932185 46.329924,281.635446 46.2790035,281.332887 L46.2760082,281.318341 C46.228083,281.018693 46.1801578,280.721953 46.1322326,280.422304 L46.1292373,280.396121 C46.0813121,280.090654 46.0333869,279.782277 45.9914524,279.470991 C45.9435272,279.162615 45.904588,278.851329 45.8596581,278.540043 L45.8566628,278.51677 C45.8147282,278.199666 45.775789,277.885471 45.7368498,277.565457 C45.6979106,277.265808 45.664962,276.96616 45.6290181,276.660692 C45.6260228,276.622872 45.6200321,276.585053 45.6170368,276.550142 C45.5810929,276.235947 45.5481444,275.924661 45.5181911,275.607557 C45.4822472,275.278816 45.452294,274.944257 45.4223407,274.609697 C45.3923875,274.275138 45.3624342,273.937669 45.3354763,273.597291 C45.3085184,273.259823 45.2815605,272.916536 45.2575979,272.573249 C45.2366306,272.244508 45.212668,271.918676 45.1946961,271.587026 C45.1917008,271.557933 45.1887054,271.525932 45.1887054,271.493931 C45.1677382,271.159371 45.1497662,270.821903 45.1347896,270.481525 C45.119813,270.193513 45.1048364,269.899682 45.0928551,269.608761 C45.0808738,269.335295 45.0718878,269.064738 45.0629018,268.788363 C45.0539158,268.532352 45.0449299,268.276342 45.0389392,268.017422 C45.0359439,267.933055 45.0359439,267.842869 45.0329486,267.758502 C45.0269579,267.511219 45.0209673,267.263936 45.0179719,267.013744 C45.0119813,266.722822 45.008986,266.431901 45.0059906,266.138071 C45.0029953,265.783147 45.0029953,265.428223 45,265.07039 C45,265.041297 45,265.015115 45,264.986022 C45,264.619462 45.0029953,264.252901 45.0059906,263.880522 C45.008986,263.569236 45.0149766,263.252132 45.0209673,262.935028 C45.0329486,262.245544 45.0509205,261.550242 45.0748831,260.843304 C45.0808738,260.625113 45.0898597,260.406922 45.0988457,260.185822 C45.110827,259.906537 45.1228083,259.627253 45.1347896,259.345059 C45.1407802,259.272329 45.1437756,259.202508 45.1467709,259.129778 C45.1647428,258.754489 45.1857101,258.376292 45.2066774,257.998094 C45.2276447,257.64317 45.2516072,257.288246 45.2725745,256.933322 C45.2785652,256.822772 45.2875511,256.712222 45.2965371,256.598763 C45.3085184,256.38639 45.323495,256.174018 45.341467,255.961645 C45.3564436,255.711453 45.3744155,255.461261 45.3953828,255.208159 C45.4193454,254.905601 45.4463033,254.600134 45.4732613,254.294666 C45.5092051,253.87574 45.545149,253.450995 45.5870836,253.032068 C45.6230275,252.607323 45.6679573,252.179669 45.7128872,251.752015 C45.7578171,251.321451 45.7997516,250.890888 45.8506721,250.460324 C45.8985973,250.029761 45.9495178,249.596288 46.0004383,249.162816 L46.0034337,249.142451 C46.0573495,248.706069 46.1112653,248.269687 46.1711718,247.827487 C46.228083,247.382378 46.2879895,246.937268 46.3508913,246.492159 C46.4107978,246.04414 46.4766949,245.596121 46.5425921,245.145193 L46.5455874,245.121919 C46.6114845,244.673901 46.680377,244.222973 46.7522648,243.769136 C46.8211572,243.312389 46.8960403,242.849824 46.9739188,242.38435 C47.123685,241.459221 47.2854325,240.519545 47.4591613,239.574051 C75.0640707,243.178565 86,234 86,234" id="Fill-106" fill="#6D89CF"></path>
            </g>
        </g>
    </g>
</svg>