<?xml version="1.0" encoding="UTF-8"?>
<svg width="52px" height="52px" viewBox="0 0 52 52" version="1.1" xmlns="http://www.w3.org/2000/svg" xmlns:xlink="http://www.w3.org/1999/xlink">
    <title>003-project</title>
    <g id="Page-1" stroke="none" stroke-width="1" fill="none" fill-rule="evenodd">
        <g id="003-project" fill="#E7826D" fill-rule="nonzero">
            <path d="M16.6,12 L31.7,12 C32.5285156,12 33.2,11.3285156 33.2,10.5 C33.2,9.6714844 32.5285156,9 31.7,9 L16.6,9 C15.7714844,9 15.1,9.6714844 15.1,10.5 C15.1,11.3285156 15.7714844,12 16.6,12 Z" id="Path"></path>
            <path d="M43.5179688,4.3179688 L39.2,8.6359375 L39.2,1.5 C39.2,0.6714844 38.5285156,0 37.7,0 L10.5,0 C10.103125,0 9.71875,0.1597656 9.4390625,0.4394531 L0.4394531,9.4390625 C0.1550781,9.7234375 0,10.1101562 0,10.5 L0,43.7 C0,47.8355469 3.3644531,51.2 7.5,51.2 L37.7,51.2 C41.8355469,51.2 45.2,47.8355469 45.2,43.7 L45.2,40.7 C45.2,39.8714844 44.5285156,39.2 43.7,39.2 L39.2,39.2 L39.2,21.3640625 L49.8820312,10.6820312 C51.6363281,8.9273438 51.6363281,6.0726562 49.8820312,4.3179688 C48.1234375,2.559375 45.2769531,2.559375 43.5179688,4.3179688 Z M9,5.1214844 L9,9 L5.1214844,9 L9,5.1214844 Z M12,40.7 L12,43.7 C12,46.18125 9.98125,48.2 7.5,48.2 C5.01875,48.2 3,46.18125 3,43.7 C3,43.1496094 3,13.2097656 3,12 L10.5,12 C11.3285156,12 12,11.3285156 12,10.5 L12,3 L36.2,3 L36.2,11.6359375 L32.8359375,15 L7.5,15 C6.6714844,15 6,15.6714844 6,16.5 C6,17.3285156 6.6714844,18 7.5,18 L29.8359375,18 L26.8359375,21 L7.5,21 C6.6714844,21 6,21.6714844 6,22.5 C6,23.3285156 6.6714844,24 7.5,24 L23.8359375,24 L22.2292969,25.6066406 C22.0648438,25.7714844 21.940625,25.971875 21.8671875,26.1929688 L21.5980469,27 L7.5,27 C6.6714844,27 6,27.6714844 6,28.5 C6,29.3285156 6.6714844,30 7.5,30 L20.5980469,30 L19.8578125,32.2210938 L19.0785156,33 L7.5,33 C6.6714844,33 6,33.6714844 6,34.5 C6,35.3285156 6.6714844,36 7.5,36 L19.4917969,36 C19.9742188,36 20.3667969,35.9546875 20.7605469,35.5605469 L21.9789062,34.3421875 L28.0070312,32.3328125 C28.2277344,32.259375 28.4285156,32.1351562 28.5933594,31.9707031 L36.2,24.3640625 L36.2,39.2 L13.5,39.2 C12.6714844,39.2 12,39.8714844 12,40.7 L12,40.7 Z M28.2605469,28.0605469 L26.7222656,29.5988281 L23.5402344,30.6597656 L24.6011719,27.4777344 L26.1390625,25.9394531 L28.2605469,28.0605469 Z M42.2,42.2 L42.2,43.7 C42.2,46.18125 40.18125,48.2 37.7,48.2 L13.4964844,48.2 C14.4398438,46.9457031 15,45.3867188 15,43.7 L15,42.2 L42.2,42.2 Z M44.578125,11.7429688 L30.3820312,25.9394531 L28.2605469,23.8179688 L42.4566406,9.621875 L44.578125,11.7429688 Z M47.7605469,8.5605469 L46.6992188,9.621875 L44.578125,7.5007812 L45.6390625,6.4394531 C46.2242188,5.8546875 47.1757812,5.8546875 47.7605469,6.4394531 C48.3453125,7.0242188 48.3453125,7.9757812 47.7605469,8.5605469 Z" id="Shape"></path>
        </g>
    </g>
</svg>