<?xml version="1.0" encoding="UTF-8"?>
<svg width="154px" height="144px" viewBox="0 0 154 144" version="1.1" xmlns="http://www.w3.org/2000/svg" xmlns:xlink="http://www.w3.org/1999/xlink">
    <title>Cloud</title>
    <g id="Page-1" stroke="none" stroke-width="1" fill="none" fill-rule="evenodd">
        <g id="Cloud" fill="#E7826D" fill-rule="nonzero">
            <path d="M117.3,36 L115.427344,36 C109.401562,14.7679686 89.9859375,0 67.8,0 C43.9839843,0 23.5289064,17.0144532 19.078125,40.2058593 C7.6722657,46.2949218 0,58.5199218 0,72 C0,91.8503907 16.1496093,108 36,108 L63.3,108 L63.3,139.5 C63.3,141.985547 65.3144532,144 67.8,144 L85.8,144 C88.2855468,144 90.3,141.985547 90.3,139.5 L90.3,108 L117.3,108 C137.315625,108 153.6,91.8503907 153.6,72 C153.6,52.1496093 137.315625,36 117.3,36 Z M85.8,99 C83.3144532,99 81.3,101.014453 81.3,103.5 L81.3,135 L72.3,135 L72.3,103.5 C72.3,101.014453 70.2855468,99 67.8,99 L58.8,99 L76.8,75 L94.8,99 L85.8,99 Z M117.3,99 L106.05,99 L85.8,72 L94.8,72 C97.2855468,72 99.3,69.9855468 99.3,67.5 C99.3,65.0144532 97.2855468,63 94.8,63 L58.8,63 C56.3144532,63 54.3,65.0144532 54.3,67.5 C54.3,69.9855468 56.3144532,72 58.8,72 L67.8,72 L47.55,99 L36,99 C21.1125,99 9,86.8875 9,72 C9,57.1792968 21.1851564,45 36,45 C38.4855468,45 40.5,42.9855468 40.5,40.5 C40.5,38.0144532 38.4855468,36 36,36 C33.7300782,36 31.4929686,36.2109375 29.3085936,36.6199218 C34.7742186,20.4539064 50.1914064,9 67.8,9 C85.678125,9 101.388281,20.8347657 106.528125,37.640625 C105.432422,37.9839843 104.350781,38.3800782 103.285547,38.83125 C100.996875,39.7992186 99.9257814,42.4394532 100.89375,44.728125 C101.864063,47.0203125 104.506641,48.0867186 106.791797,47.1199218 C110.117578,45.7136718 113.653125,45 117.3,45 C132.353906,45 144.6,57.1125 144.6,72 C144.6,86.8875 132.353906,99 117.3,99 Z" id="Shape"></path>
        </g>
    </g>
</svg>