<?xml version="1.0" encoding="UTF-8"?>
<svg width="154px" height="154px" viewBox="0 0 154 154" version="1.1" xmlns="http://www.w3.org/2000/svg" xmlns:xlink="http://www.w3.org/1999/xlink">
    <title>gestion</title>
    <g id="Page-1" stroke="none" stroke-width="1" fill="none" fill-rule="evenodd">
        <g id="gestion" fill="#58CBB3" fill-rule="nonzero">
            <path d="M6.6058593,147.165234 C6.6070314,147.167578 6.6082032,147.16875 6.6105468,147.169922 C6.6140625,147.173438 6.6175782,147.175781 6.6210936,147.179297 C15.3984375,155.929688 29.6050782,155.963672 38.4292968,147.139453 L76.5304686,108.665625 C77.4128907,109.548047 82.7765625,114.884766 115.190625,147.154688 C123.984375,155.947266 138.215625,155.948438 147.009375,147.154688 C147.011719,147.152344 147.012891,147.151172 147.015234,147.148828 C147.016406,147.147656 147.017578,147.147656 147.017578,147.146484 C147.019922,147.144141 147.022266,147.140625 147.024609,147.138281 C155.782031,138.364453 155.777344,124.102734 147.003516,115.328906 L102.031641,70.5585936 L122.969531,49.9488282 L133.853906,49.9488282 C135.502734,49.9488282 137.020312,49.0453125 137.807812,47.5957032 L153.053906,19.5246093 C154.005469,17.7738282 153.691406,15.6046875 152.281641,14.1949218 L139.553906,1.4683593 C138.145312,0.0585936 135.976172,-0.2554686 134.224219,0.6960936 L106.153125,15.9421875 C104.703516,16.7296875 103.801172,18.2472657 103.801172,19.8960936 L103.801172,30.7464843 L76.5597657,57.7265625 L61.1671875,42.234375 C65.109375,31.1320314 62.6460936,18.2460936 53.7761718,9.3761718 C44.3519532,-0.0480468 29.94375,-2.5230468 17.9226564,3.2203125 C16.6042968,3.8496093 15.675,5.0800782 15.4277343,6.5203125 C15.1804686,7.959375 15.6480468,9.4289064 16.6804686,10.4625 L31.5035157,25.2855468 L25.1402343,31.6488282 L10.3171875,16.8257814 C9.2835936,15.7933593 7.8140625,15.3257814 6.375,15.5730468 C4.9347657,15.8203125 3.7042968,16.7507814 3.075,18.0679686 C-2.6671875,30.0890625 -0.1933593,44.4972657 9.2308593,53.9226564 C18.0140625,62.7058593 30.8601564,65.2910157 42.0691407,61.3195314 L51.1230468,70.4320314 C49.6523436,71.915625 8.1550782,113.762109 6.5953125,115.335938 C-2.1972657,124.128516 -2.1996093,138.360938 6.5953125,147.154688 L6.6058593,147.165234 Z M32.0496093,140.791406 C27.8167968,145.024219 21.5894532,145.791797 16.6582032,143.419922 L51.0550782,108.687891 L57.4792968,115.113281 L32.0496093,140.791406 Z M121.546875,140.784375 L95.634375,114.986719 L101.956641,108.664453 L136.904297,143.431641 C131.888672,145.814063 125.697656,144.933984 121.546875,140.784375 Z M140.646094,121.700391 C144.798047,125.851172 145.671094,132.05625 143.274609,137.075391 L108.321094,102.301172 L114.726563,95.8957032 L140.646094,121.700391 Z M108.348047,89.5464843 C106.280859,91.6125 91.2667968,106.627734 89.2570314,108.6375 L76.5011718,95.9378907 C76.9464843,95.49375 73.1015625,99.328125 95.6179686,76.8726564 L108.348047,89.5464843 Z M112.801172,22.5738282 L135.566016,10.2082032 L143.541797,18.1828125 L131.176172,40.9488282 L122.989453,40.9488282 C119.921484,37.8808593 115.699219,33.6585936 112.801172,30.7605468 L112.801172,22.5738282 Z M108.285937,38.971875 C110.524219,41.2101564 112.448437,43.1355468 114.737109,45.4230468 C104.975391,55.0042968 91.603125,68.1351564 89.23125,70.4800782 L82.903125,64.1109375 L108.285937,38.971875 Z M15.5941407,47.5582032 C10.5058593,42.4699218 8.2535157,35.3460936 9.2273436,28.4648436 L21.9585936,41.1949218 C23.7140625,42.9515625 26.5652343,42.9515625 28.321875,41.1949218 L41.0496093,28.4671875 C42.80625,26.7105468 42.80625,23.8605468 41.0496093,22.1039064 L28.3195314,9.3738282 C35.2007814,8.3976564 42.3234375,10.6511718 47.4128907,15.7394532 C56.1855468,24.5121093 56.1855468,38.7867186 47.4128907,47.5582032 C38.6402343,56.3308593 24.3667968,56.3308593 15.5941407,47.5582032 Z M50.3519532,56.8875 C51.5460936,55.9933593 52.6921875,55.0066407 53.7773436,53.9226564 C54.853125,52.846875 55.8328125,51.7101564 56.71875,50.5265625 C70.7003907,64.5972657 82.1472657,76.1226564 82.8679686,76.8433593 L76.5046875,83.2078125 L50.3519532,56.8875 Z M57.4160157,76.8667968 L70.1308593,89.5816407 L66.9492186,92.7632814 C65.1890625,94.5222657 65.1925782,97.378125 66.9550782,99.1335936 L70.153125,102.316406 L63.8132814,108.718359 C61.734375,106.639453 46.734375,91.640625 44.7421875,89.6484375 L57.4160157,76.8667968 Z M12.9714843,121.686328 L38.4046875,96.0386718 L44.690625,102.324609 L10.3066407,137.04375 C7.9734375,132.146484 8.71875,125.940234 12.9714843,121.686328 Z" id="Shape"></path>
        </g>
    </g>
</svg>