<?xml version="1.0" encoding="UTF-8"?>
<svg width="582px" height="159px" viewBox="0 0 582 159" version="1.1" xmlns="http://www.w3.org/2000/svg" xmlns:xlink="http://www.w3.org/1999/xlink">
    <title>logo orionx copy 6</title>
    <g id="Page-1" stroke="none" stroke-width="1" fill="none" fill-rule="evenodd">
        <g id="logo-orionx-copy-6" fill="#FFFFFF" fill-rule="nonzero">
            <g id="Group">
                <path d="M79.2,-3.97903932e-12 C122.940952,-3.9870744e-12 158.4,35.4590478 158.4,79.2 C158.4,122.940952 122.940952,158.4 79.2,158.4 C35.4590478,158.4 8.01164586e-13,122.940952 7.95807864e-13,79.2 C7.90451142e-13,35.4590478 35.4590478,-3.97100424e-12 79.2,-3.97903932e-12 Z M35.0762624,35.0762624 C33.1924385,36.9600863 32.6753457,39.8151344 33.7788,42.24 L46.4112,69.7224 C49.1739146,75.7295802 49.1739146,82.6440198 46.4112,88.6512 L33.7788,116.16 C32.6753457,118.584866 33.1924385,121.439914 35.0762624,123.323738 C36.9600863,125.207561 39.8151344,125.724654 42.24,124.6212 L69.7224,111.9888 C75.7295802,109.226085 82.6440198,109.226085 88.6512,111.9888 L116.16,124.6212 C118.584866,125.724654 121.439914,125.207561 123.323738,123.323738 C125.207561,121.439914 125.724654,118.584866 124.6212,116.16 L111.9756,88.6644 C109.212885,82.6572198 109.212885,75.7427802 111.9756,69.7356 L124.6212,42.24 C125.724654,39.8151344 125.207561,36.9600863 123.323738,35.0762624 C121.439914,33.1924385 118.584866,32.6753457 116.16,33.7788 L88.6644,46.4244 C82.6572198,49.1871146 75.7427802,49.1871146 69.7356,46.4244 L42.24,33.7788 C39.8151344,32.6753457 36.9600863,33.1924385 35.0762624,35.0762624 Z" id="Combined-Shape"></path>
            </g>
            <path d="M230.7096,45.474 C250.6416,45.474 263.1816,58.41 263.1816,76.362 C263.1816,99.858 242.8536,118.206 218.5656,118.206 C198.8976,118.206 186.3576,105.27 186.3576,87.45 C186.3576,63.822 206.9496,45.474 230.7096,45.474 Z M221.76,98.802 C226.924005,98.7152164 231.841943,96.5802129 235.431547,92.866829 C239.021152,89.1534452 240.988267,84.1659798 240.9,79.002 C240.9,70.554 235.356,64.878 227.436,64.878 C217.14,64.878 208.691901,73.458 208.691901,84.942 C208.6656,93.258 213.9456,98.802 221.76,98.802 Z" id="Shape"></path>
            <path d="M314.0016,67.914 C312.822206,67.7340447 311.630637,67.6457804 310.4376,67.65 C299.7456,67.65 294.8616,75.438 293.1456,85.866 L287.9976,116.49 L265.9536,116.49 L277.5696,47.19 L299.0856,47.19 L297.5016,56.43 C301.913478,49.5607367 309.533702,45.4268894 317.6976,45.4736016 L314.0016,67.914 Z" id="Path"></path>
            <path d="M336.7056,116.49 L314.6616,116.49 L326.2776,47.19 L348.3216,47.19 L336.7056,116.49 Z M327.36,32.802 C327.36,25.014 334.092,19.074 341.748,19.074 C348.084,19.074 352.44,23.298 352.44,29.37 C352.44,37.026 345.576,42.966 337.788,42.966 C331.5576,42.966 327.36,38.742 327.36,32.802 Z" id="Shape"></path>
            <path d="M395.3136,45.474 C415.2456,45.474 427.7856,58.41 427.7856,76.362 C427.7856,99.858 407.4576,118.206 383.1696,118.206 C363.5016,118.206 350.9616,105.27 350.9616,87.45 C350.9616,63.822 371.5536,45.474 395.3136,45.474 Z M386.3376,98.802 C391.501605,98.7152164 396.419543,96.5802129 400.009147,92.866829 C403.598752,89.1534452 405.565867,84.1659798 405.4776,79.002 C405.4776,70.554 399.9336,64.878 392.0136,64.878 C381.7176,64.878 373.2696,73.458 373.2696,84.942 C373.2696,93.258 378.5496,98.802 386.3376,98.802 Z" id="Shape"></path>
            <path d="M478.0776,75.24 C479.1336,68.772 475.9656,65.34 470.6856,65.34 C464.981084,65.3301808 460.166147,69.5786545 459.4656,75.24 L452.6016,116.556 L430.5576,116.556 L442.1736,47.256 L463.6896,47.256 L462.5016,54.384 C467.20372,48.8255595 474.097278,45.5957105 481.3776,45.54 C503.0256,45.54 502.1016,64.02 499.7256,78.144 L493.2576,116.556 L471.24,116.556 L478.0776,75.24 Z" id="Path"></path>
            <polygon id="Path" points="538.4016 97.878 524.04 116.49 499.356 116.49 528.792 80.85 511.632 47.19 535.92 47.19 543.18 65.802 556.776 47.19 581.856 47.19 553.212 81.906 570.9 116.49 547.272 116.49"></polygon>
        </g>
    </g>
</svg>