<?xml version="1.0" encoding="UTF-8"?>
<svg width="154px" height="154px" viewBox="0 0 154 154" version="1.1" xmlns="http://www.w3.org/2000/svg" xmlns:xlink="http://www.w3.org/1999/xlink">
    <title>Proyecto</title>
    <g id="Page-1" stroke="none" stroke-width="1" fill="none" fill-rule="evenodd">
        <g id="Proyecto" fill="#58CBB3" fill-rule="nonzero">
            <path d="M144.597656,127.521094 L144.597656,49.6488282 C144.597656,47.1644532 142.582031,45.1488282 140.097656,45.1488282 C137.612109,45.1488282 135.597656,47.1644532 135.597656,49.6488282 L135.597656,72.1488282 L113.097656,72.1488282 C110.612109,72.1488282 108.597656,74.1632814 108.597656,76.6488282 C108.597656,79.1332032 110.612109,81.1488282 113.097656,81.1488282 L135.597656,81.1488282 L135.597656,127.521094 C131.767969,128.879297 128.729297,131.917969 127.371094,135.747656 L81.5988282,135.747656 L81.5988282,103.647656 C81.5988282,101.163281 79.5832032,99.1476564 77.0988282,99.1476564 C74.6132814,99.1476564 72.5988282,101.163281 72.5988282,103.647656 L72.5988282,135.747656 L26.2253907,135.747656 C24.8671875,131.917969 21.8285157,128.879297 18,127.521094 L18,81.1488282 L50.0988282,81.1488282 C52.584375,81.1488282 54.5988282,79.1332032 54.5988282,76.6488282 C54.5988282,74.1632814 52.584375,72.1488282 50.0988282,72.1488282 L18,72.1488282 L18,26.3753907 C21.8285157,25.0171875 24.8671875,21.9785157 26.2253907,18.15 L72.5988282,18.15 L72.5988282,40.6488282 C72.5988282,43.134375 74.6132814,45.1488282 77.0988282,45.1488282 C79.5832032,45.1488282 81.5988282,43.134375 81.5988282,40.6488282 L81.5988282,18.15 L104.097656,18.15 C106.583203,18.15 108.597656,16.134375 108.597656,13.65 C108.597656,11.1644532 106.583203,9.15 104.097656,9.15 L26.2253907,9.15 C24.3679686,3.9128907 19.3664064,0.15 13.5,0.15 C6.05625,0.15 -2.55795385e-14,6.20625 -2.55795385e-14,13.65 C-2.55795385e-14,19.5164064 3.7617186,24.5179686 9,26.3753907 L9,127.521094 C3.7617186,129.378516 -2.55795385e-14,134.38125 -2.55795385e-14,140.247656 C-2.55795385e-14,147.691406 6.05625,153.746484 13.5,153.746484 C19.3664064,153.746484 24.3679686,149.984766 26.2253907,144.747656 L127.371094,144.747656 C129.228516,149.984766 134.23125,153.746484 140.097656,153.746484 C147.541406,153.746484 153.596484,147.691406 153.596484,140.247656 C153.596484,134.38125 149.834766,129.378516 144.597656,127.521094 Z M13.5,9.15 C15.9808593,9.15 18,11.1679686 18,13.65 C18,16.1308593 15.9808593,18.15 13.5,18.15 C11.0179686,18.15 9,16.1308593 9,13.65 C9,11.1679686 11.0179686,9.15 13.5,9.15 Z M13.5,144.747656 C11.0179686,144.747656 9,142.728516 9,140.247656 C9,137.765625 11.0179686,135.747656 13.5,135.747656 C15.9808593,135.747656 18,137.765625 18,140.247656 C18,142.728516 15.9808593,144.747656 13.5,144.747656 Z M140.097656,144.747656 C137.615625,144.747656 135.597656,142.728516 135.597656,140.247656 C135.597656,137.765625 137.615625,135.747656 140.097656,135.747656 C142.578516,135.747656 144.597656,137.765625 144.597656,140.247656 C144.597656,142.728516 142.578516,144.747656 140.097656,144.747656 Z" id="Shape"></path>
            <path d="M130.551562,4.1039064 L75.2355468,59.4199218 C75.2355468,59.4199218 75.2355468,59.4199218 75.234375,59.4210936 C75.234375,59.4210936 75.234375,59.4222657 75.2332032,59.4222657 L66.6878907,67.96875 C66.1933593,68.4621093 65.8207032,69.0644532 65.6003907,69.7277343 L59.5722657,87.8109375 L53.9601564,93.4242186 C52.2023436,95.1808593 52.2023436,98.0308593 53.9601564,99.7875 C55.7167968,101.544141 58.5667968,101.545313 60.3234375,99.7875 L65.9355468,94.1753907 L84.0199218,88.1472657 C84.6832032,87.9257814 85.2855468,87.5542968 85.7789064,87.0597657 L149.642578,23.1960936 C154.918359,17.9203125 154.919531,9.3796875 149.642578,4.1039064 C144.379687,-1.1589843 135.815625,-1.1589843 130.551562,4.1039064 L130.551562,4.1039064 Z M80.165625,79.9453125 L70.6207032,83.1269532 L73.8023436,73.5808593 L78.4160157,68.9671875 L84.7804686,75.3304686 L80.165625,79.9453125 Z M91.14375,68.9671875 L84.7804686,62.6027343 L127.367578,20.015625 L133.732031,26.3789064 L91.14375,68.9671875 Z M143.279297,16.8316407 L140.095312,20.015625 L133.732031,13.6511718 L136.914844,10.4683593 C138.670312,8.7140625 141.525,8.7140625 143.279297,10.4683593 C145.038281,12.2273436 145.038281,15.0726564 143.279297,16.8316407 Z" id="Shape"></path>
        </g>
    </g>
</svg>