<svg id="Capa_1" data-name="Capa 1" xmlns="http://www.w3.org/2000/svg" viewBox="0 0 197.47 25.43"><defs><style>.cls-1{fill:#fff;}</style></defs><title>logo-header</title><g id="Capa_1-2" data-name="Capa 1-2"><path class="cls-1" d="M0,13.29c0,4.12,2.34,11.87,12,11.87H23.8V5.2H18.62V20.09H12.45c-4.08,0-6.32-1.91-7-4.84A18.34,18.34,0,0,1,5.2,11V0H0Z"/><path class="cls-1" d="M70.13,24.87C70.13,13,65-.86,45.16.05v7c-3.81-4.51-9.92-7.48-19.45-7V25.16H69.79a.48.48,0,0,0,.23-.07.39.39,0,0,0,.11-.22m-25-4.78H30.91V5.51c5.58,0,13,4,14.24,14.58m19.43,0H50.39V5.51c5.58,0,13,4,14.24,14.58"/><polygon class="cls-1" points="78.48 1.61 83.03 1.61 87.67 19.76 87.73 19.76 92.51 1.61 96.86 1.61 89.84 25.16 85.39 25.16 78.48 1.61"/><path class="cls-1" d="M106.5,15c0-3.07-1-4.62-2.83-4.62-2.14,0-3,2.33-3,4.62Zm3.1,9.35a12.47,12.47,0,0,1-5.07,1.11c-5.47,0-7.84-4-7.84-8.7,0-5.2,2.67-9.21,7-9.21,3.65,0,6.78,2.19,6.78,9.28v.81h-9.81c0,3,1.15,4.75,4.32,4.75A6.6,6.6,0,0,0,109.4,21Z"/><path class="cls-1" d="M113.61,10.66a25,25,0,0,0-.13-2.87h3.82c0,.88.13,1.78.13,2.66h.07A4.92,4.92,0,0,1,122,7.52c3.85,0,5,2.93,5,6.44v11.2h-4.08V14.74c0-2.67-.66-3.78-2.34-3.78-2.14,0-2.9,1.86-2.9,4.08V25.16H113.6Z"/><path class="cls-1" d="M132.21,4.21l4.08-1.28V7.79h3.4v3.07h-3.4v9c0,1.85.67,2.39,1.85,2.39a3.22,3.22,0,0,0,1.55-.37v3a6.29,6.29,0,0,1-2.73.57c-3,0-4.75-1.42-4.75-5.06V10.86h-2.7V7.79h2.7Z"/><path class="cls-1" d="M155.69,22.29a25,25,0,0,0,.13,2.87H152c0-.87-.13-1.79-.13-2.66h-.1c-.79,1.28-1.84,2.93-4.51,2.93-3.85,0-5-2.93-5-6.44V7.79h4.08V18.21c0,2.67.72,3.78,2.44,3.78,2.17,0,2.8-2,2.8-4.25V7.79h4.08Z"/><path class="cls-1" d="M159.5,10.66a25,25,0,0,0-.13-2.87h3.69c0,1,.13,2.12.13,3.17h.07c.49-1.35,1.77-3.44,4.31-3.44a5.46,5.46,0,0,1,.69.1v3.91a4.44,4.44,0,0,0-1.15-.17c-1.68,0-3.52,1.05-3.52,4.29v9.51H159.5Z"/><path class="cls-1" d="M180,15c0-3.07-1-4.62-2.83-4.62-2.14,0-3,2.33-3,4.62Zm3.1,9.35a12.42,12.42,0,0,1-5.1,1.08c-5.46,0-7.84-4-7.84-8.7,0-5.2,2.67-9.21,7-9.21,3.65,0,6.79,2.19,6.79,9.28v.81h-9.82c0,3,1.15,4.75,4.32,4.75A6.6,6.6,0,0,0,182.88,21Z"/><path class="cls-1" d="M186.63,21.11a10.52,10.52,0,0,0,4.25,1.15c1.48,0,2.63-.37,2.63-1.72,0-.68-.33-1.32-1.81-2.19l-1.67-1c-1.72-1-3.6-2.15-3.6-4.89,0-2.39,2.28-4.92,5.87-4.92a13,13,0,0,1,4.24.71l-.23,3.24a9.05,9.05,0,0,0-3.59-.78c-1.64,0-2.33.64-2.33,1.69s.72,1.45,1.91,2.22l2,1.32c2.1,1.38,3.16,2.36,3.16,4.38,0,3.21-2.64,5.13-6.33,5.13a13.52,13.52,0,0,1-4.71-.84Z"/></g></svg>